<?xml version="1.0" encoding="utf-8"?>
<!-- Generator: Adobe Illustrator 26.3.1, SVG Export Plug-In . SVG Version: 6.00 Build 0)  -->
<svg version="1.1" id="Layer_2" xmlns="http://www.w3.org/2000/svg" xmlns:xlink="http://www.w3.org/1999/xlink" x="0px" y="0px"
	 viewBox="0 0 55.9 53.1" style="enable-background:new 0 0 55.9 53.1;" xml:space="preserve">
<style type="text/css">
	.st0{fill:none;stroke:#3B6665;stroke-width:3.5;stroke-miterlimit:10;}
	.st1{fill:none;stroke:#3B6665;stroke-width:3.5;stroke-linecap:round;stroke-linejoin:round;}
</style>
<g id="Bath">
	<g>
		<path class="st0" d="M2.8,26.7h50.2c0.6,0,1.1,0.5,1.1,1.1v2.3c0,8.4-6.8,15.3-15.3,15.3H17c-8.4,0-15.3-6.8-15.3-15.3v-2.3
			C1.8,27.2,2.3,26.7,2.8,26.7L2.8,26.7z"/>
		<g>
			<line class="st1" x1="15.7" y1="45.5" x2="15.7" y2="51.3"/>
			<line class="st1" x1="40.2" y1="45.5" x2="40.2" y2="51.3"/>
		</g>
		<path class="st1" d="M15.5,26.7H7.7V6.1c0-2.4,2.8-4.3,6.3-4.3s6.1,1.9,6.2,4.2"/>
		<path class="st1" d="M25.4,12.3H14.9c0.1-2.7,2.4-4.9,5.3-4.9S25.3,9.6,25.4,12.3L25.4,12.3z"/>
	</g>
</g>
</svg>
