<?xml version="1.0" encoding="utf-8"?>
<!-- Generator: Adobe Illustrator 26.3.1, SVG Export Plug-In . SVG Version: 6.00 Build 0)  -->
<svg version="1.1" id="Layer_2" xmlns="http://www.w3.org/2000/svg" xmlns:xlink="http://www.w3.org/1999/xlink" x="0px" y="0px"
	 viewBox="0 0 41.6 41.8" style="enable-background:new 0 0 41.6 41.8;" xml:space="preserve">
<style type="text/css">
	.st0{fill:none;stroke:#36827F;stroke-width:3.5;stroke-linecap:round;stroke-linejoin:round;}
</style>
<g id="Phone">
	<g>
		<path class="st0" d="M36.5,33.2c0,3.5-2.6,6.4-6,6.8c-0.3,0-0.6,0-1,0s-0.6,0-1,0h0C14,39.6,2.3,27.8,1.8,13.2v-0.1
			c0-0.3,0-0.6,0-0.9c0-0.3,0-0.7,0-1c0.5-3.4,3.3-5.9,6.8-5.9c3.8,0,6.9,3.1,6.9,6.9c0,3.5-2.6,6.3-5.9,6.8
			c2.1,6.2,7,11.1,13.1,13.2c0.5-3.3,3.4-5.9,6.8-5.9C33.4,26.3,36.5,29.4,36.5,33.2z"/>
		<path class="st0" d="M22,9.1c5.8,0,10.5,4.7,10.5,10.5"/>
		<path class="st0" d="M22,1.7c9.9,0,17.9,8,17.9,17.9"/>
	</g>
</g>
</svg>
