<?xml version="1.0" encoding="utf-8"?>
<!-- Generator: Adobe Illustrator 26.3.1, SVG Export Plug-In . SVG Version: 6.00 Build 0)  -->
<svg version="1.1" id="Layer_2" xmlns="http://www.w3.org/2000/svg" xmlns:xlink="http://www.w3.org/1999/xlink" x="0px" y="0px"
	 viewBox="0 0 56 51.4" style="enable-background:new 0 0 56 51.4;" xml:space="preserve">
<style type="text/css">
	.st0{fill:none;stroke:#36827F;stroke-width:3.51;stroke-linecap:round;stroke-linejoin:round;}
	.st1{fill:#36827F;stroke:#36827F;stroke-miterlimit:10;}
</style>
<g id="Camera">
	<g>
		<path class="st0" d="M45.5,8.7H48c3.5,0,6.3,2.9,6.3,6.5v28c0,3.6-2.8,6.5-6.3,6.5H8.1c-3.5,0-6.3-2.9-6.3-6.5v-28
			c0-3.6,2.8-6.5,6.3-6.5h1.6"/>
		<path class="st1" d="M28,20.6c4.4,0,8,3.6,8,8s-3.6,8-8,8s-8-3.6-8-8S23.6,20.6,28,20.6 M28,17.1c-6.4,0-11.5,5.2-11.5,11.6
			S21.6,40.2,28,40.2S39.6,35,39.6,28.6S34.4,17.1,28,17.1C28,17.1,28,17.1,28,17.1z"/>
		<polyline class="st0" points="45.5,8.7 37.6,1.7 17.9,1.7 9.9,8.6 		"/>
	</g>
</g>
</svg>
