<?xml version="1.0" encoding="utf-8"?>
<!-- Generator: Adobe Illustrator 26.3.1, SVG Export Plug-In . SVG Version: 6.00 Build 0)  -->
<svg version="1.1" id="Layer_2" xmlns="http://www.w3.org/2000/svg" xmlns:xlink="http://www.w3.org/1999/xlink" x="0px" y="0px"
	 viewBox="0 0 44.4 52.9" style="enable-background:new 0 0 44.4 52.9;" xml:space="preserve">
<style type="text/css">
	.st0{fill:#36827F;stroke:#36827F;stroke-width:3.5;stroke-linecap:round;stroke-linejoin:round;}
	.st1{fill:none;stroke:#36827F;stroke-width:3.5;stroke-linecap:round;stroke-linejoin:round;}
	.st2{stroke:#36827F;stroke-width:3.5;stroke-linecap:round;stroke-linejoin:round;}
	.st3{fill:#FFFFFF;stroke:#36827F;stroke-width:3.5;stroke-linecap:round;stroke-linejoin:round;}
</style>
<g id="Filled-alerts">
	<g>
		<path class="st0" d="M8.5,37.7V20.1c0-6.8,6.1-12.3,13.5-12.3c3.7,0,7.1,1.4,9.5,3.6s4,5.3,4,8.7v17.6"/>
		<line class="st1" x1="42.6" y1="45.3" x2="1.8" y2="45.3"/>
		<path class="st2" d="M1.8,45.3l6.8-7.7C8.5,37.7,1.8,45.3,1.8,45.3z"/>
		<line class="st1" x1="35.6" y1="37.7" x2="42.6" y2="45.3"/>
		<circle class="st3" cx="22" cy="4.2" r="2.4"/>
		<path class="st3" d="M27.3,46.5c-0.2,2.6-2.5,4.6-5.3,4.6s-5-2-5.3-4.6H27.3z"/>
		<polygon class="st0" points="41.3,45 34.6,35.9 9.2,35.9 4.3,43.8 		"/>
	</g>
</g>
</svg>
