<?xml version="1.0" encoding="UTF-8"?>
<svg id="Layer_2" data-name="Layer 2" xmlns="http://www.w3.org/2000/svg" viewBox="0 0 56.11 55.9">
  <defs>
    <style>
      .cls-1 {
        stroke: #fff;
        stroke-linecap: round;
        stroke-linejoin: round;
        stroke-width: 3.5px;
      }

      .cls-1, .cls-2 {
        fill: #fff;
      }

      .cls-3, .cls-2 {
        stroke-width: 0px;
      }
    </style>
  </defs>
  <g id="filled-listings">
    <g>
      <g>
        <rect class="cls-3" x="1.75" y="1.75" width="52.61" height="52.4" rx="1.49" ry="1.49"/>
        <path class="cls-3" d="m52.61,3.5v48.9H3.5V3.5h49.11m.26-3.5H3.24C1.45,0,0,1.45,0,3.24v49.42c0,1.79,1.45,3.24,3.24,3.24h49.63c1.79,0,3.24-1.45,3.24-3.24V3.24c0-1.79-1.45-3.24-3.24-3.24h0Z"/>
      </g>
      <g>
        <g>
          <circle class="cls-2" cx="11.73" cy="15.15" r="3.25"/>
          <path class="cls-2" d="m11.73,13.65c.81,0,1.5.69,1.5,1.5s-.69,1.5-1.5,1.5-1.5-.69-1.5-1.5.69-1.5,1.5-1.5m0-3.5h0c-2.75,0-5,2.25-5,5h0c0,2.75,2.25,5,5,5h0c2.75,0,5-2.25,5-5h0c0-2.75-2.25-5-5-5h0Z"/>
        </g>
        <line class="cls-1" x1="21.81" y1="15.05" x2="48.24" y2="15.05"/>
      </g>
      <g>
        <g>
          <circle class="cls-2" cx="11.73" cy="27.95" r="3.25"/>
          <path class="cls-2" d="m11.73,26.45c.81,0,1.5.69,1.5,1.5s-.69,1.5-1.5,1.5-1.5-.69-1.5-1.5.69-1.5,1.5-1.5m0-3.5h0c-2.75,0-5,2.25-5,5s2.25,5,5,5h0c2.75,0,5-2.25,5-5s-2.25-5-5-5h0Z"/>
        </g>
        <line class="cls-1" x1="21.81" y1="27.86" x2="48.24" y2="27.86"/>
      </g>
      <g>
        <g>
          <circle class="cls-2" cx="11.73" cy="40.93" r="3.25"/>
          <path class="cls-2" d="m11.73,39.43c.81,0,1.5.69,1.5,1.5s-.69,1.5-1.5,1.5-1.5-.69-1.5-1.5.69-1.5,1.5-1.5m0-3.5h0c-2.75,0-5,2.25-5,5s2.25,5,5,5h0c2.75,0,5-2.25,5-5s-2.25-5-5-5h0Z"/>
        </g>
        <line class="cls-1" x1="21.81" y1="40.84" x2="48.24" y2="40.84"/>
      </g>
    </g>
  </g>
</svg>