<svg width="116" height="28" viewBox="0 0 116 28" fill="none" xmlns="http://www.w3.org/2000/svg">
<path d="M17.4169 2.29968L7.46063 11.9687C7.46063 11.9687 4.81343 19.6229 10.1078 23.6515C15.4022 27.6801 19.8916 26.2418 20.6975 25.781C21.5034 25.3203 27.6036 22.3857 27.8918 18.7592C28.18 15.1336 28.2463 12.2679 27.6954 11.6864C27.1446 11.105 17.4178 2.29883 17.4178 2.29883L17.4169 2.29968Z" fill="white"/>
<path d="M17.5432 21.3325C20.9175 21.3325 23.6529 18.5972 23.6529 15.2229C23.6529 11.8487 20.9175 9.11328 17.5432 9.11328C14.169 9.11328 11.4336 11.8487 11.4336 15.2229C11.4336 18.5972 14.169 21.3325 17.5432 21.3325Z" stroke="#3B6665" stroke-width="2.04023" stroke-miterlimit="10" stroke-linecap="round"/>
<path d="M17.5432 21.3325C20.9175 21.3325 23.6529 18.5972 23.6529 15.2229C23.6529 11.8487 20.9175 9.11328 17.5432 9.11328C14.169 9.11328 11.4336 11.8487 11.4336 15.2229C11.4336 18.5972 14.169 21.3325 17.5432 21.3325Z" stroke="black" stroke-opacity="0.2" stroke-width="2.04023" stroke-miterlimit="10" stroke-linecap="round"/>
<path d="M17.4445 1.4718L2 16.9172" stroke="white" stroke-width="2.04023" stroke-miterlimit="10" stroke-linecap="round"/>
<path d="M33.2876 17.2785L17.5234 1.51514" stroke="white" stroke-width="2.04023" stroke-miterlimit="10" stroke-linecap="round"/>
<path d="M27.6944 11.6873C28.1033 12.8273 28.326 14.0574 28.326 15.3393C28.326 21.3249 23.4745 26.178 17.4881 26.178C11.5018 26.178 6.64941 21.3249 6.64941 15.3393C6.64941 14.0276 6.88319 12.7703 7.30993 11.6066" stroke="white" stroke-width="2.04023" stroke-miterlimit="10" stroke-linecap="round"/>
<path d="M28.9338 25.9833L23.3027 20.3531" stroke="#3B6665" stroke-width="2.04023" stroke-miterlimit="10" stroke-linecap="round"/>
<path d="M28.9338 25.9833L23.3027 20.3531" stroke="black" stroke-opacity="0.2" stroke-width="2.04023" stroke-miterlimit="10" stroke-linecap="round"/>
<path d="M17.0292 13.0389H15.7158C15.4871 13.0389 15.3018 13.2243 15.3018 13.4529V14.7663C15.3018 14.995 15.4871 15.1803 15.7158 15.1803H17.0292C17.2578 15.1803 17.4431 14.995 17.4431 14.7663V13.4529C17.4431 13.2243 17.2578 13.0389 17.0292 13.0389Z" fill="#ED7861"/>
<path d="M19.6815 13.0389H18.3681C18.1395 13.0389 17.9541 13.2243 17.9541 13.4529V14.7663C17.9541 14.995 18.1395 15.1803 18.3681 15.1803H19.6815C19.9101 15.1803 20.0955 14.995 20.0955 14.7663V13.4529C20.0955 13.2243 19.9101 13.0389 19.6815 13.0389Z" fill="#ED7861"/>
<path d="M17.0292 15.7415H15.7158C15.4871 15.7415 15.3018 15.9268 15.3018 16.1555V17.4688C15.3018 17.6975 15.4871 17.8828 15.7158 17.8828H17.0292C17.2578 17.8828 17.4431 17.6975 17.4431 17.4688V16.1555C17.4431 15.9268 17.2578 15.7415 17.0292 15.7415Z" fill="#ED7861"/>
<path d="M19.6815 15.7415H18.3681C18.1395 15.7415 17.9541 15.9268 17.9541 16.1555V17.4688C17.9541 17.6975 18.1395 17.8828 18.3681 17.8828H19.6815C19.9101 17.8828 20.0955 17.6975 20.0955 17.4688V16.1555C20.0955 15.9268 19.9101 15.7415 19.6815 15.7415Z" fill="#ED7861"/>
<path d="M38.3834 9.96025C38.3834 8.85785 38.6984 7.99956 39.3283 7.38537C39.974 6.77118 40.8638 6.46408 41.9977 6.46408H46.2025C48.5491 6.46408 50.3208 6.92079 51.5177 7.8342C52.7146 8.74761 53.313 10.1099 53.313 11.9209C53.313 13.606 52.809 14.921 51.8011 15.8659C50.809 16.8108 49.4704 17.2833 47.7853 17.2833L51.3759 20.8503C51.6594 21.1338 51.8011 21.4566 51.8011 21.8189C51.8011 22.1968 51.6358 22.5275 51.3051 22.811C50.9586 23.0787 50.62 23.2126 50.2893 23.2126C49.8326 23.2126 49.4152 23.0079 49.0373 22.5984L43.9348 17.3778H41.5252V21.8189C41.5252 22.2598 41.3756 22.6063 41.0764 22.8583C40.7772 23.1102 40.3992 23.2362 39.9425 23.2362C39.4701 23.2362 39.0921 23.1102 38.8086 22.8583C38.5252 22.6063 38.3834 22.2598 38.3834 21.8189V9.96025ZM46.1081 14.9446C47.1475 14.9446 47.9585 14.8423 48.5412 14.6375C49.1239 14.4328 49.5334 14.1178 49.7696 13.6926C50.0216 13.2517 50.1475 12.6611 50.1475 11.9209C50.1475 10.85 49.8168 10.0784 49.1554 9.6059C48.5097 9.13345 47.4939 8.89722 46.1081 8.89722H42.541C42.2261 8.89722 41.9741 8.99959 41.7851 9.20432C41.6119 9.40905 41.5252 9.69252 41.5252 10.0547V14.9446H46.1081ZM61.3444 23.2362C59.99 23.2362 58.8088 22.9921 57.8009 22.5039C56.793 22.0157 56.0135 21.3307 55.4623 20.4487C54.9268 19.5511 54.6591 18.5038 54.6591 17.3069C54.6591 15.3699 55.2182 13.8659 56.3363 12.795C57.4702 11.7241 59.0608 11.1886 61.1081 11.1886C62.368 11.1886 63.4783 11.3855 64.4389 11.7792C65.4153 12.1729 66.1713 12.7241 66.7067 13.4328C67.2579 14.1257 67.5335 14.921 67.5335 15.8187C67.5335 16.5746 67.2894 17.1573 66.8012 17.5668C66.3288 17.9762 65.6516 18.181 64.7697 18.181H57.6592C57.6592 19.0629 57.9663 19.7322 58.5805 20.1889C59.2104 20.6299 60.1317 20.8503 61.3444 20.8503C62.62 20.8503 63.7066 20.5669 64.6043 19.9999C65.1082 19.6849 65.502 19.5275 65.7854 19.5275C66.0532 19.5275 66.313 19.6534 66.565 19.9054C66.8327 20.1731 66.9666 20.4645 66.9666 20.7795C66.9666 21.1574 66.8091 21.4566 66.4941 21.6771C65.8327 22.1811 65.061 22.5669 64.1791 22.8346C63.2972 23.1024 62.3523 23.2362 61.3444 23.2362ZM63.8247 16.0077C64.0925 16.0077 64.2815 15.9604 64.3917 15.8659C64.5019 15.7557 64.5571 15.5825 64.5571 15.3462C64.5571 14.795 64.2421 14.362 63.6121 14.047C62.9979 13.732 62.1633 13.5745 61.1081 13.5745C60.053 13.5745 59.2183 13.795 58.6041 14.236C58.0057 14.6769 57.7065 15.2675 57.7065 16.0077H63.8247ZM71.0105 23.2362C70.5223 23.2362 70.1443 23.1102 69.8766 22.8583C69.6089 22.6063 69.475 22.2598 69.475 21.8189V12.606C69.475 12.1493 69.601 11.8028 69.853 11.5666C70.1207 11.3146 70.4908 11.1886 70.9632 11.1886C71.4357 11.1886 71.8058 11.3146 72.0735 11.5666C72.3412 11.8186 72.4751 12.165 72.4751 12.606V13.2911C73.5932 11.8894 75.1208 11.1886 77.0579 11.1886C78.5698 11.1886 79.7588 11.669 80.6249 12.6296C81.5069 13.5745 81.9478 14.8659 81.9478 16.5037V21.8189C81.9478 22.2598 81.8061 22.6063 81.5226 22.8583C81.2391 23.1102 80.8612 23.2362 80.3887 23.2362C79.9005 23.2362 79.5225 23.1102 79.2548 22.8583C78.9871 22.6063 78.8532 22.2598 78.8532 21.8189V16.5037C78.8532 15.6061 78.6328 14.9053 78.1918 14.4013C77.7508 13.8974 77.1367 13.6454 76.3492 13.6454C75.1523 13.6454 74.2232 13.9997 73.5617 14.7084C72.9003 15.4014 72.5696 16.3778 72.5696 17.6376V21.8189C72.5696 22.2598 72.4279 22.6063 72.1444 22.8583C71.8609 23.1102 71.4829 23.2362 71.0105 23.2362ZM93.6466 19.9527C93.8986 20.1574 94.0246 20.4094 94.0246 20.7086C94.0246 21.0078 93.9143 21.3149 93.6939 21.6299C93.3474 22.1338 92.8592 22.5275 92.2292 22.811C91.5993 23.0945 90.8906 23.2362 90.1032 23.2362C88.8433 23.2362 87.8512 22.8976 87.1267 22.2204C86.4181 21.5275 86.0637 20.5826 86.0637 19.3857V13.858H85.0952C84.6227 13.858 84.2448 13.7478 83.9613 13.5273C83.6778 13.3068 83.5361 13.0155 83.5361 12.6532C83.5361 12.2753 83.6699 11.9761 83.9377 11.7556C84.2211 11.5351 84.607 11.4249 85.0952 11.4249H86.0637V7.85782C86.0637 7.41686 86.2054 7.0704 86.4889 6.81842C86.7724 6.56644 87.1504 6.44046 87.6228 6.44046C88.111 6.44046 88.489 6.56644 88.7567 6.81842C89.0244 7.0704 89.1583 7.41686 89.1583 7.85782V11.4249H91.4261C91.9143 11.4249 92.2922 11.5351 92.56 11.7556C92.8434 11.9761 92.9852 12.2753 92.9852 12.6532C92.9852 13.0155 92.8434 13.3068 92.56 13.5273C92.2922 13.7478 91.9143 13.858 91.4261 13.858H89.1583V19.6456C89.1583 19.992 89.2607 20.2676 89.4654 20.4724C89.6859 20.6771 89.9772 20.7795 90.3394 20.7795C90.6229 20.7795 90.867 20.7401 91.0717 20.6613C91.2922 20.5669 91.5127 20.4172 91.7332 20.2125C92.1426 19.8188 92.5206 19.6219 92.8671 19.6219C93.119 19.6219 93.3789 19.7322 93.6466 19.9527Z" fill="white"/>
<path d="M104.563 23.2362C102.72 23.2362 101.129 22.8819 99.7907 22.1732C98.4679 21.4488 97.46 20.4487 96.767 19.1731C96.0741 17.8817 95.7276 16.4014 95.7276 14.732C95.7276 13.0627 96.0741 11.5902 96.767 10.3146C97.46 9.02321 98.4679 8.02318 99.7907 7.3145C101.129 6.59007 102.72 6.22785 104.563 6.22785C106.405 6.22785 107.988 6.59007 109.311 7.3145C110.649 8.02318 111.665 9.02321 112.358 10.3146C113.051 11.5902 113.397 13.0627 113.397 14.732C113.397 16.4014 113.051 17.8817 112.358 19.1731C111.665 20.4487 110.649 21.4488 109.311 22.1732C107.988 22.8819 106.405 23.2362 104.563 23.2362ZM104.563 20.7558C106.358 20.7558 107.752 20.2204 108.744 19.1495C109.736 18.0628 110.232 16.5904 110.232 14.732C110.232 12.858 109.712 11.3855 108.673 10.3146C107.649 9.24369 106.2 8.70824 104.326 8.70824C102.61 8.70824 101.271 9.25944 100.31 10.3618C99.3655 11.4485 98.8931 12.9052 98.8931 14.732C98.8931 16.5904 99.3892 18.0628 100.381 19.1495C101.373 20.2204 102.767 20.7558 104.563 20.7558Z" fill="#ED7861"/>
</svg>
