<?xml version="1.0" encoding="utf-8"?>
<!-- Generator: Adobe Illustrator 26.3.1, SVG Export Plug-In . SVG Version: 6.00 Build 0)  -->
<svg version="1.1" id="Layer_2" xmlns="http://www.w3.org/2000/svg" xmlns:xlink="http://www.w3.org/1999/xlink" x="0px" y="0px"
	 viewBox="0 0 40.5 55.8" style="enable-background:new 0 0 40.5 55.8;" xml:space="preserve">
<style type="text/css">
	.st0{fill:none;stroke:#3B6665;stroke-width:3.51;stroke-miterlimit:10;}
	.st1{fill:none;stroke:#3B6665;stroke-width:3.51;stroke-linecap:round;stroke-linejoin:round;}
</style>
<g id="Location">
	<g>
		<path class="st0" d="M35.3,31L35.3,31L35.3,31L35.3,31l0.9-1.3l0,0c1.6-2.8,2.6-6,2.6-9.4c0-10.2-8.3-18.5-18.5-18.5
			S1.8,10,1.8,20.3c0,3,0.7,5.7,1.9,8.2l0,0C4.3,29.8,5.1,31,6,32l0,0"/>
		<polyline class="st1" points="36.2,29.7 36.2,29.7 35.4,31 35.3,31 35.3,31 35.3,31 20.3,54 6,32.1 6,32 3.7,28.5 3.7,28.5 		"/>
		<circle class="st1" cx="20.3" cy="19.4" r="7.5"/>
	</g>
</g>
</svg>
