<svg width="974" height="233" viewBox="0 0 974 233" fill="none" xmlns="http://www.w3.org/2000/svg">
<path d="M141.095 16.1357L55.7899 98.979C55.7899 98.979 33.1089 164.56 78.4709 199.077C123.833 233.594 162.297 221.27 169.202 217.322C176.107 213.375 228.374 188.232 230.843 157.16C233.312 126.096 233.88 101.543 229.161 96.5609C224.441 91.5789 141.102 16.1284 141.102 16.1284L141.095 16.1357Z" fill="#36827F"/>
<path d="M141.095 16.1357L55.7899 98.979C55.7899 98.979 33.1089 164.56 78.4709 199.077C123.833 233.594 162.297 221.27 169.202 217.322C176.107 213.375 228.374 188.232 230.843 157.16C233.312 126.096 233.88 101.543 229.161 96.5609C224.441 91.5789 141.102 16.1284 141.102 16.1284L141.095 16.1357Z" fill="black" fill-opacity="0.2"/>
<path d="M142.173 179.207C171.084 179.207 194.52 155.771 194.52 126.86C194.52 97.9497 171.084 74.5132 142.173 74.5132C113.263 74.5132 89.8262 97.9497 89.8262 126.86C89.8262 155.771 113.263 179.207 142.173 179.207Z" stroke="white" stroke-width="17.4806" stroke-miterlimit="10" stroke-linecap="round"/>
<path d="M141.328 9.0415L9 141.377" stroke="#36827F" stroke-width="17.4806" stroke-miterlimit="10" stroke-linecap="round"/>
<path d="M141.328 9.0415L9 141.377" stroke="black" stroke-opacity="0.2" stroke-width="17.4806" stroke-miterlimit="10" stroke-linecap="round"/>
<path d="M277.065 144.472L141.999 9.41284" stroke="#36827F" stroke-width="17.4806" stroke-miterlimit="10" stroke-linecap="round"/>
<path d="M277.065 144.472L141.999 9.41284" stroke="black" stroke-opacity="0.2" stroke-width="17.4806" stroke-miterlimit="10" stroke-linecap="round"/>
<path d="M229.153 96.5682C232.656 106.335 234.564 116.875 234.564 127.858C234.564 179.142 192.997 220.724 141.706 220.724C90.4154 220.724 48.8408 179.142 48.8408 127.858C48.8408 116.62 50.8438 105.847 54.5001 95.8762" stroke="#36827F" stroke-width="17.4806" stroke-miterlimit="10" stroke-linecap="round"/>
<path d="M229.153 96.5682C232.656 106.335 234.564 116.875 234.564 127.858C234.564 179.142 192.997 220.724 141.706 220.724C90.4154 220.724 48.8408 179.142 48.8408 127.858C48.8408 116.62 50.8438 105.847 54.5001 95.8762" stroke="black" stroke-opacity="0.2" stroke-width="17.4806" stroke-miterlimit="10" stroke-linecap="round"/>
<path d="M239.765 219.056L191.519 170.817" stroke="white" stroke-width="17.4806" stroke-miterlimit="10" stroke-linecap="round"/>
<path d="M137.766 108.149H126.513C124.554 108.149 122.966 109.737 122.966 111.696V122.949C122.966 124.908 124.554 126.496 126.513 126.496H137.766C139.725 126.496 141.313 124.908 141.313 122.949V111.696C141.313 109.737 139.725 108.149 137.766 108.149Z" fill="#ED7861"/>
<path d="M160.498 108.149H149.245C147.286 108.149 145.698 109.737 145.698 111.696V122.949C145.698 124.908 147.286 126.496 149.245 126.496H160.498C162.457 126.496 164.046 124.908 164.046 122.949V111.696C164.046 109.737 162.457 108.149 160.498 108.149Z" fill="#ED7861"/>
<path d="M137.766 131.303H126.513C124.554 131.303 122.966 132.892 122.966 134.851V146.104C122.966 148.063 124.554 149.651 126.513 149.651H137.766C139.725 149.651 141.313 148.063 141.313 146.104V134.851C141.313 132.892 139.725 131.303 137.766 131.303Z" fill="#ED7861"/>
<path d="M160.498 131.303H149.245C147.286 131.303 145.698 132.892 145.698 134.851V146.104C145.698 148.063 147.286 149.651 149.245 149.651H160.498C162.457 149.651 164.046 148.063 164.046 146.104V134.851C164.046 132.892 162.457 131.303 160.498 131.303Z" fill="#ED7861"/>
<path d="M320.728 83.2761C320.728 73.8309 323.427 66.4771 328.824 61.2147C334.356 55.9524 341.98 53.3212 351.695 53.3212H387.722C407.827 53.3212 423.007 57.2342 433.262 65.0603C443.517 72.8864 448.644 84.558 448.644 100.075C448.644 114.513 444.326 125.78 435.691 133.876C427.19 141.972 415.721 146.02 401.283 146.02L432.047 176.582C434.476 179.011 435.691 181.777 435.691 184.88C435.691 188.118 434.274 190.952 431.44 193.381C428.472 195.675 425.571 196.822 422.737 196.822C418.824 196.822 415.248 195.067 412.01 191.559L368.292 146.829H347.647V184.88C347.647 188.658 346.365 191.627 343.802 193.786C341.238 195.945 338 197.024 334.087 197.024C330.039 197.024 326.8 195.945 324.372 193.786C321.943 191.627 320.728 188.658 320.728 184.88V83.2761ZM386.913 125.982C395.818 125.982 402.767 125.105 407.76 123.351C412.752 121.597 416.26 118.898 418.284 115.255C420.443 111.477 421.523 106.417 421.523 100.075C421.523 90.8998 418.689 84.2881 413.022 80.2402C407.49 76.1922 398.787 74.1682 386.913 74.1682H356.35C353.652 74.1682 351.493 75.0453 349.874 76.7994C348.389 78.5535 347.647 80.9823 347.647 84.0857V125.982H386.913ZM517.456 197.024C505.852 197.024 495.732 194.933 487.097 190.75C478.461 186.567 471.782 180.697 467.059 173.141C462.471 165.45 460.178 156.477 460.178 146.222C460.178 129.625 464.968 116.739 474.548 107.564C484.263 98.3886 497.891 93.8009 515.432 93.8009C526.227 93.8009 535.74 95.4875 543.97 98.8608C552.336 102.234 558.813 106.957 563.401 113.029C568.123 118.966 570.485 125.78 570.485 133.471C570.485 139.948 568.393 144.94 564.21 148.448C560.162 151.957 554.36 153.711 546.804 153.711H485.882C485.882 161.267 488.513 167.002 493.776 170.915C499.173 174.693 507.067 176.582 517.456 176.582C528.386 176.582 537.696 174.153 545.387 169.295C549.705 166.597 553.078 165.247 555.507 165.247C557.801 165.247 560.027 166.327 562.186 168.486C564.48 170.78 565.627 173.276 565.627 175.975C565.627 179.213 564.278 181.777 561.579 183.666C555.912 187.984 549.3 191.289 541.744 193.583C534.188 195.877 526.092 197.024 517.456 197.024ZM538.708 135.09C541.002 135.09 542.621 134.685 543.566 133.876C544.51 132.931 544.982 131.447 544.982 129.423C544.982 124.7 542.284 120.99 536.887 118.291C531.624 115.592 524.473 114.243 515.432 114.243C506.392 114.243 499.24 116.132 493.978 119.91C488.851 123.688 486.287 128.748 486.287 135.09H538.708ZM600.275 197.024C596.092 197.024 592.854 195.945 590.56 193.786C588.266 191.627 587.119 188.658 587.119 184.88V105.945C587.119 102.032 588.199 99.0632 590.358 97.0392C592.651 94.8803 595.822 93.8009 599.87 93.8009C603.918 93.8009 607.089 94.8803 609.383 97.0392C611.677 99.1981 612.824 102.167 612.824 105.945V111.814C622.404 99.8053 635.492 93.8009 652.089 93.8009C665.043 93.8009 675.23 97.9163 682.651 106.147C690.207 114.243 693.986 125.308 693.986 139.34V184.88C693.986 188.658 692.771 191.627 690.342 193.786C687.914 195.945 684.675 197.024 680.627 197.024C676.444 197.024 673.206 195.945 670.912 193.786C668.618 191.627 667.471 188.658 667.471 184.88V139.34C667.471 131.649 665.582 125.645 661.804 121.327C658.026 117.009 652.764 114.85 646.017 114.85C635.762 114.85 627.801 117.886 622.134 123.958C616.467 129.895 613.633 138.261 613.633 149.056V184.88C613.633 188.658 612.419 191.627 609.99 193.786C607.561 195.945 604.323 197.024 600.275 197.024ZM794.22 168.891C796.379 170.645 797.458 172.804 797.458 175.367C797.458 177.931 796.514 180.562 794.625 183.261C791.656 187.579 787.474 190.952 782.076 193.381C776.679 195.81 770.607 197.024 763.86 197.024C753.066 197.024 744.565 194.123 738.358 188.321C732.286 182.384 729.25 174.288 729.25 164.033V116.672H720.952C716.904 116.672 713.666 115.727 711.237 113.838C708.808 111.949 707.594 109.453 707.594 106.35C707.594 103.111 708.741 100.547 711.034 98.6584C713.463 96.7694 716.769 95.8248 720.952 95.8248H729.25V65.2627C729.25 61.4846 730.465 58.5161 732.893 56.3572C735.322 54.1983 738.561 53.1188 742.609 53.1188C746.791 53.1188 750.03 54.1983 752.324 56.3572C754.618 58.5161 755.764 61.4846 755.764 65.2627V95.8248H775.195C779.378 95.8248 782.616 96.7694 784.91 98.6584C787.339 100.547 788.553 103.111 788.553 106.35C788.553 109.453 787.339 111.949 784.91 113.838C782.616 115.727 779.378 116.672 775.195 116.672H755.764V166.259C755.764 169.228 756.642 171.589 758.396 173.343C760.285 175.098 762.781 175.975 765.884 175.975C768.313 175.975 770.405 175.637 772.159 174.963C774.048 174.153 775.937 172.871 777.826 171.117C781.334 167.744 784.572 166.057 787.541 166.057C789.7 166.057 791.926 167.002 794.22 168.891Z" fill="#36827F"/>
<path d="M320.728 83.2761C320.728 73.8309 323.427 66.4771 328.824 61.2147C334.356 55.9524 341.98 53.3212 351.695 53.3212H387.722C407.827 53.3212 423.007 57.2342 433.262 65.0603C443.517 72.8864 448.644 84.558 448.644 100.075C448.644 114.513 444.326 125.78 435.691 133.876C427.19 141.972 415.721 146.02 401.283 146.02L432.047 176.582C434.476 179.011 435.691 181.777 435.691 184.88C435.691 188.118 434.274 190.952 431.44 193.381C428.472 195.675 425.571 196.822 422.737 196.822C418.824 196.822 415.248 195.067 412.01 191.559L368.292 146.829H347.647V184.88C347.647 188.658 346.365 191.627 343.802 193.786C341.238 195.945 338 197.024 334.087 197.024C330.039 197.024 326.8 195.945 324.372 193.786C321.943 191.627 320.728 188.658 320.728 184.88V83.2761ZM386.913 125.982C395.818 125.982 402.767 125.105 407.76 123.351C412.752 121.597 416.26 118.898 418.284 115.255C420.443 111.477 421.523 106.417 421.523 100.075C421.523 90.8998 418.689 84.2881 413.022 80.2402C407.49 76.1922 398.787 74.1682 386.913 74.1682H356.35C353.652 74.1682 351.493 75.0453 349.874 76.7994C348.389 78.5535 347.647 80.9823 347.647 84.0857V125.982H386.913ZM517.456 197.024C505.852 197.024 495.732 194.933 487.097 190.75C478.461 186.567 471.782 180.697 467.059 173.141C462.471 165.45 460.178 156.477 460.178 146.222C460.178 129.625 464.968 116.739 474.548 107.564C484.263 98.3886 497.891 93.8009 515.432 93.8009C526.227 93.8009 535.74 95.4875 543.97 98.8608C552.336 102.234 558.813 106.957 563.401 113.029C568.123 118.966 570.485 125.78 570.485 133.471C570.485 139.948 568.393 144.94 564.21 148.448C560.162 151.957 554.36 153.711 546.804 153.711H485.882C485.882 161.267 488.513 167.002 493.776 170.915C499.173 174.693 507.067 176.582 517.456 176.582C528.386 176.582 537.696 174.153 545.387 169.295C549.705 166.597 553.078 165.247 555.507 165.247C557.801 165.247 560.027 166.327 562.186 168.486C564.48 170.78 565.627 173.276 565.627 175.975C565.627 179.213 564.278 181.777 561.579 183.666C555.912 187.984 549.3 191.289 541.744 193.583C534.188 195.877 526.092 197.024 517.456 197.024ZM538.708 135.09C541.002 135.09 542.621 134.685 543.566 133.876C544.51 132.931 544.982 131.447 544.982 129.423C544.982 124.7 542.284 120.99 536.887 118.291C531.624 115.592 524.473 114.243 515.432 114.243C506.392 114.243 499.24 116.132 493.978 119.91C488.851 123.688 486.287 128.748 486.287 135.09H538.708ZM600.275 197.024C596.092 197.024 592.854 195.945 590.56 193.786C588.266 191.627 587.119 188.658 587.119 184.88V105.945C587.119 102.032 588.199 99.0632 590.358 97.0392C592.651 94.8803 595.822 93.8009 599.87 93.8009C603.918 93.8009 607.089 94.8803 609.383 97.0392C611.677 99.1981 612.824 102.167 612.824 105.945V111.814C622.404 99.8053 635.492 93.8009 652.089 93.8009C665.043 93.8009 675.23 97.9163 682.651 106.147C690.207 114.243 693.986 125.308 693.986 139.34V184.88C693.986 188.658 692.771 191.627 690.342 193.786C687.914 195.945 684.675 197.024 680.627 197.024C676.444 197.024 673.206 195.945 670.912 193.786C668.618 191.627 667.471 188.658 667.471 184.88V139.34C667.471 131.649 665.582 125.645 661.804 121.327C658.026 117.009 652.764 114.85 646.017 114.85C635.762 114.85 627.801 117.886 622.134 123.958C616.467 129.895 613.633 138.261 613.633 149.056V184.88C613.633 188.658 612.419 191.627 609.99 193.786C607.561 195.945 604.323 197.024 600.275 197.024ZM794.22 168.891C796.379 170.645 797.458 172.804 797.458 175.367C797.458 177.931 796.514 180.562 794.625 183.261C791.656 187.579 787.474 190.952 782.076 193.381C776.679 195.81 770.607 197.024 763.86 197.024C753.066 197.024 744.565 194.123 738.358 188.321C732.286 182.384 729.25 174.288 729.25 164.033V116.672H720.952C716.904 116.672 713.666 115.727 711.237 113.838C708.808 111.949 707.594 109.453 707.594 106.35C707.594 103.111 708.741 100.547 711.034 98.6584C713.463 96.7694 716.769 95.8248 720.952 95.8248H729.25V65.2627C729.25 61.4846 730.465 58.5161 732.893 56.3572C735.322 54.1983 738.561 53.1188 742.609 53.1188C746.791 53.1188 750.03 54.1983 752.324 56.3572C754.618 58.5161 755.764 61.4846 755.764 65.2627V95.8248H775.195C779.378 95.8248 782.616 96.7694 784.91 98.6584C787.339 100.547 788.553 103.111 788.553 106.35C788.553 109.453 787.339 111.949 784.91 113.838C782.616 115.727 779.378 116.672 775.195 116.672H755.764V166.259C755.764 169.228 756.642 171.589 758.396 173.343C760.285 175.098 762.781 175.975 765.884 175.975C768.313 175.975 770.405 175.637 772.159 174.963C774.048 174.153 775.937 172.871 777.826 171.117C781.334 167.744 784.572 166.057 787.541 166.057C789.7 166.057 791.926 167.002 794.22 168.891Z" fill="black" fill-opacity="0.2"/>
<path d="M887.747 197.024C871.96 197.024 858.332 193.988 846.863 187.916C835.528 181.709 826.893 173.141 820.956 162.211C815.019 151.147 812.05 138.463 812.05 124.161C812.05 109.858 815.019 97.2416 820.956 86.3121C826.893 75.2477 835.528 66.6795 846.863 60.6075C858.332 54.4007 871.96 51.2972 887.747 51.2972C903.534 51.2972 917.095 54.4007 928.429 60.6075C939.898 66.6795 948.602 75.2477 954.539 86.3121C960.476 97.2416 963.444 109.858 963.444 124.161C963.444 138.463 960.476 151.147 954.539 162.211C948.602 173.141 939.898 181.709 928.429 187.916C917.095 193.988 903.534 197.024 887.747 197.024ZM887.747 175.772C903.129 175.772 915.071 171.184 923.572 162.009C932.072 152.699 936.323 140.083 936.323 124.161C936.323 108.104 931.87 95.4875 922.964 86.3121C914.194 77.1367 901.78 72.549 885.723 72.549C871.015 72.549 859.546 77.2717 851.315 86.7169C843.219 96.0272 839.171 108.508 839.171 124.161C839.171 140.083 843.422 152.699 851.923 162.009C860.423 171.184 872.365 175.772 887.747 175.772Z" fill="#ED7861"/>
</svg>
