<svg width="190" height="209" viewBox="0 0 190 209" fill="none" xmlns="http://www.w3.org/2000/svg">
<path d="M93.4532 10.6967L36.9767 65.5434C36.9767 65.5434 21.9606 108.962 51.9927 131.814C82.0248 154.666 107.49 146.507 112.062 143.893C116.633 141.279 151.237 124.633 152.871 104.062C154.506 83.4961 154.882 67.2408 151.757 63.9424C148.633 60.6441 93.458 10.6919 93.458 10.6919L93.4532 10.6967Z" fill="white"/>
<path d="M94.1673 118.659C113.308 118.659 128.824 103.143 128.824 84.0024C128.824 64.8622 113.308 49.3459 94.1673 49.3459C75.027 49.3459 59.5107 64.8622 59.5107 84.0024C59.5107 103.143 75.027 118.659 94.1673 118.659Z" stroke="#36827F" stroke-width="11.5731" stroke-miterlimit="10" stroke-linecap="round"/>
<path d="M94.1673 118.659C113.308 118.659 128.824 103.143 128.824 84.0024C128.824 64.8622 113.308 49.3459 94.1673 49.3459C75.027 49.3459 59.5107 64.8622 59.5107 84.0024C59.5107 103.143 75.027 118.659 94.1673 118.659Z" stroke="black" stroke-opacity="0.2" stroke-width="11.5731" stroke-miterlimit="10" stroke-linecap="round"/>
<path d="M93.608 6L6 93.6129" stroke="white" stroke-width="11.5731" stroke-miterlimit="10" stroke-linecap="round"/>
<path d="M183.473 95.6624L94.0518 6.24609" stroke="white" stroke-width="11.5731" stroke-miterlimit="10" stroke-linecap="round"/>
<path d="M151.753 63.9471C154.072 70.4136 155.336 77.3912 155.336 84.6629C155.336 118.615 127.816 146.145 93.8588 146.145C59.9015 146.145 32.377 118.615 32.377 84.6629C32.377 77.2224 33.703 70.0905 36.1237 63.489" stroke="white" stroke-width="11.5731" stroke-miterlimit="10" stroke-linecap="round"/>
<path d="M158.78 145.04L126.838 113.104" stroke="#36827F" stroke-width="11.5731" stroke-miterlimit="10" stroke-linecap="round"/>
<path d="M158.78 145.04L126.838 113.104" stroke="black" stroke-opacity="0.2" stroke-width="11.5731" stroke-miterlimit="10" stroke-linecap="round"/>
<path d="M91.2497 71.6141H83.7996C82.5026 71.6141 81.4512 72.6655 81.4512 73.9625V81.4127C81.4512 82.7096 82.5026 83.761 83.7996 83.761H91.2497C92.5467 83.761 93.5981 82.7096 93.5981 81.4127V73.9625C93.5981 72.6655 92.5467 71.6141 91.2497 71.6141Z" fill="#ED7861"/>
<path d="M106.299 71.6141H98.8484C97.5514 71.6141 96.5 72.6655 96.5 73.9625V81.4127C96.5 82.7096 97.5514 83.761 98.8484 83.761H106.299C107.595 83.761 108.647 82.7096 108.647 81.4127V73.9625C108.647 72.6655 107.595 71.6141 106.299 71.6141Z" fill="#ED7861"/>
<path d="M91.2497 86.9436H83.7996C82.5026 86.9436 81.4512 87.995 81.4512 89.292V96.7421C81.4512 98.0391 82.5026 99.0905 83.7996 99.0905H91.2497C92.5467 99.0905 93.5981 98.0391 93.5981 96.7421V89.292C93.5981 87.995 92.5467 86.9436 91.2497 86.9436Z" fill="#ED7861"/>
<path d="M106.299 86.9436H98.8484C97.5514 86.9436 96.5 87.995 96.5 89.292V96.7421C96.5 98.0391 97.5514 99.0905 98.8484 99.0905H106.299C107.595 99.0905 108.647 98.0391 108.647 96.7421V89.292C108.647 87.995 107.595 86.9436 106.299 86.9436Z" fill="#ED7861"/>
<path d="M9.02702 168.861C9.02702 166.338 9.74773 164.374 11.1892 162.969C12.6666 161.564 14.7027 160.861 17.2973 160.861H26.9188C32.2882 160.861 36.3422 161.906 39.081 163.996C41.8197 166.086 43.1891 169.203 43.1891 173.347C43.1891 177.203 42.0359 180.212 39.7296 182.374C37.4594 184.536 34.3963 185.618 30.5405 185.618L38.7566 193.78C39.4053 194.428 39.7296 195.167 39.7296 195.996C39.7296 196.861 39.3512 197.618 38.5945 198.266C37.8017 198.879 37.0269 199.185 36.2702 199.185C35.2251 199.185 34.2702 198.717 33.4053 197.78L21.7297 185.834H16.2162V195.996C16.2162 197.005 15.8738 197.798 15.1892 198.374C14.5045 198.951 13.6396 199.239 12.5946 199.239C11.5135 199.239 10.6486 198.951 9.99999 198.374C9.35134 197.798 9.02702 197.005 9.02702 195.996V168.861ZM26.7026 180.266C29.081 180.266 30.9369 180.032 32.2702 179.564C33.6035 179.095 34.5404 178.374 35.081 177.401C35.6576 176.392 35.9458 175.041 35.9458 173.347C35.9458 170.897 35.1891 169.131 33.6756 168.05C32.1981 166.969 29.8738 166.428 26.7026 166.428H18.5405C17.8198 166.428 17.2432 166.663 16.8108 167.131C16.4144 167.6 16.2162 168.248 16.2162 169.077V180.266H26.7026ZM61.5665 199.239C58.4674 199.239 55.7648 198.681 53.4585 197.563C51.1522 196.446 49.3684 194.879 48.1071 192.861C46.8819 190.807 46.2693 188.41 46.2693 185.672C46.2693 181.239 47.5486 177.798 50.1071 175.347C52.7017 172.897 56.3413 171.672 61.026 171.672C63.9089 171.672 66.4494 172.122 68.6476 173.023C70.8818 173.924 72.6115 175.185 73.8368 176.807C75.098 178.392 75.7286 180.212 75.7286 182.266C75.7286 183.996 75.1701 185.329 74.053 186.266C72.9719 187.203 71.4224 187.672 69.4043 187.672H53.1341C53.1341 189.69 53.8368 191.221 55.2422 192.266C56.6837 193.275 58.7918 193.78 61.5665 193.78C64.4854 193.78 66.9719 193.131 69.026 191.834C70.1791 191.113 71.08 190.753 71.7287 190.753C72.3413 190.753 72.9359 191.041 73.5124 191.618C74.125 192.23 74.4314 192.897 74.4314 193.618C74.4314 194.482 74.071 195.167 73.3503 195.672C71.8368 196.825 70.071 197.708 68.053 198.32C66.035 198.933 63.8728 199.239 61.5665 199.239ZM67.2422 182.699C67.8548 182.699 68.2872 182.591 68.5395 182.374C68.7917 182.122 68.9179 181.726 68.9179 181.185C68.9179 179.924 68.1971 178.933 66.7557 178.212C65.3503 177.491 63.4404 177.131 61.026 177.131C58.6116 177.131 56.7017 177.636 55.2963 178.645C53.9269 179.654 53.2422 181.005 53.2422 182.699H67.2422ZM83.6847 199.239C82.5676 199.239 81.7027 198.951 81.0901 198.374C80.4775 197.798 80.1712 197.005 80.1712 195.996V174.915C80.1712 173.87 80.4595 173.077 81.0361 172.537C81.6487 171.96 82.4955 171.672 83.5766 171.672C84.6577 171.672 85.5045 171.96 86.1171 172.537C86.7297 173.113 87.036 173.906 87.036 174.915V176.482C89.5946 173.275 93.0901 171.672 97.5225 171.672C100.982 171.672 103.703 172.771 105.685 174.969C107.703 177.131 108.712 180.086 108.712 183.834V195.996C108.712 197.005 108.387 197.798 107.739 198.374C107.09 198.951 106.225 199.239 105.144 199.239C104.027 199.239 103.162 198.951 102.55 198.374C101.937 197.798 101.631 197.005 101.631 195.996V183.834C101.631 181.78 101.126 180.176 100.117 179.023C99.1081 177.87 97.7027 177.293 95.9009 177.293C93.1621 177.293 91.036 178.104 89.5225 179.726C88.009 181.311 87.2523 183.546 87.2523 186.428V195.996C87.2523 197.005 86.9279 197.798 86.2793 198.374C85.6306 198.951 84.7658 199.239 83.6847 199.239ZM135.481 191.726C136.058 192.194 136.346 192.771 136.346 193.455C136.346 194.14 136.094 194.843 135.589 195.563C134.796 196.717 133.679 197.618 132.238 198.266C130.796 198.915 129.175 199.239 127.373 199.239C124.49 199.239 122.22 198.464 120.562 196.915C118.94 195.329 118.13 193.167 118.13 190.428V177.78H115.913C114.832 177.78 113.968 177.528 113.319 177.023C112.67 176.519 112.346 175.852 112.346 175.023C112.346 174.158 112.652 173.473 113.265 172.969C113.913 172.464 114.796 172.212 115.913 172.212H118.13V164.05C118.13 163.041 118.454 162.248 119.103 161.672C119.751 161.095 120.616 160.807 121.697 160.807C122.814 160.807 123.679 161.095 124.292 161.672C124.904 162.248 125.211 163.041 125.211 164.05V172.212H130.4C131.517 172.212 132.382 172.464 132.995 172.969C133.643 173.473 133.967 174.158 133.967 175.023C133.967 175.852 133.643 176.519 132.995 177.023C132.382 177.528 131.517 177.78 130.4 177.78H125.211V191.023C125.211 191.816 125.445 192.446 125.913 192.915C126.418 193.383 127.085 193.618 127.913 193.618C128.562 193.618 129.121 193.527 129.589 193.347C130.094 193.131 130.598 192.789 131.103 192.32C132.04 191.419 132.904 190.969 133.697 190.969C134.274 190.969 134.868 191.221 135.481 191.726Z" fill="#ED7861"/>
<path d="M160.459 199.239C156.243 199.239 152.603 198.428 149.54 196.807C146.513 195.149 144.207 192.861 142.621 189.942C141.036 186.987 140.243 183.6 140.243 179.78C140.243 175.96 141.036 172.591 142.621 169.672C144.207 166.717 146.513 164.428 149.54 162.807C152.603 161.149 156.243 160.32 160.459 160.32C164.675 160.32 168.297 161.149 171.324 162.807C174.387 164.428 176.711 166.717 178.297 169.672C179.882 172.591 180.675 175.96 180.675 179.78C180.675 183.6 179.882 186.987 178.297 189.942C176.711 192.861 174.387 195.149 171.324 196.807C168.297 198.428 164.675 199.239 160.459 199.239ZM160.459 193.563C164.567 193.563 167.756 192.338 170.026 189.888C172.297 187.401 173.432 184.032 173.432 179.78C173.432 175.491 172.243 172.122 169.864 169.672C167.522 167.221 164.207 165.996 159.918 165.996C155.99 165.996 152.927 167.257 150.729 169.78C148.567 172.266 147.486 175.6 147.486 179.78C147.486 184.032 148.621 187.401 150.891 189.888C153.162 192.338 156.351 193.563 160.459 193.563Z" fill="white"/>
</svg>
