<?xml version="1.0" encoding="utf-8"?>
<!-- Generator: Adobe Illustrator 26.3.1, SVG Export Plug-In . SVG Version: 6.00 Build 0)  -->
<svg version="1.1" id="Layer_2" xmlns="http://www.w3.org/2000/svg" xmlns:xlink="http://www.w3.org/1999/xlink" x="0px" y="0px"
	 viewBox="0 0 56.1 55.9" style="enable-background:new 0 0 56.1 55.9;" xml:space="preserve">
<style type="text/css">
	.st0{fill:#36827F;}
	.st1{fill:none;stroke:#36827F;stroke-width:3.5;stroke-linecap:round;stroke-linejoin:round;}
</style>
<path class="st0" d="M52.6,3.5v48.9H3.5V3.5H52.6 M52.9,0H3.2C1.5,0,0,1.4,0,3.2v49.4c0,1.8,1.5,3.2,3.2,3.2h49.6
	c1.8,0,3.2-1.5,3.2-3.2V3.2C56.1,1.4,54.7,0,52.9,0C52.9,0,52.9,0,52.9,0z"/>
<g>
	<circle class="st0" cx="11.7" cy="15.1" r="3.2"/>
	<path class="st0" d="M11.7,13.6c0.8,0,1.5,0.7,1.5,1.5s-0.7,1.5-1.5,1.5s-1.5-0.7-1.5-1.5S10.9,13.6,11.7,13.6 M11.7,10.1
		c-2.8,0-5,2.2-5,5l0,0c0,2.7,2.2,5,5,5s5-2.2,5-5l0,0C16.7,12.4,14.5,10.1,11.7,10.1L11.7,10.1z"/>
</g>
<line class="st1" x1="21.8" y1="15" x2="48.2" y2="15"/>
<g>
	<circle class="st0" cx="11.7" cy="27.9" r="3.2"/>
	<path class="st0" d="M11.7,26.4c0.8,0,1.5,0.7,1.5,1.5s-0.7,1.5-1.5,1.5s-1.5-0.7-1.5-1.5S10.9,26.4,11.7,26.4 M11.7,22.9
		c-2.8,0-5,2.2-5,5l0,0c0,2.8,2.2,5,5,5s5-2.3,5-5l0,0C16.7,25.2,14.5,22.9,11.7,22.9L11.7,22.9z"/>
</g>
<line class="st1" x1="21.8" y1="27.9" x2="48.2" y2="27.9"/>
<g>
	<circle class="st0" cx="11.7" cy="40.9" r="3.2"/>
	<path class="st0" d="M11.7,39.4c0.8,0,1.5,0.7,1.5,1.5s-0.7,1.5-1.5,1.5s-1.5-0.7-1.5-1.5S10.9,39.4,11.7,39.4 M11.7,35.9
		c-2.8,0-5,2.2-5,5l0,0c0,2.8,2.2,5,5,5s5-2.2,5-5l0,0C16.7,38.2,14.5,35.9,11.7,35.9L11.7,35.9z"/>
</g>
<line class="st1" x1="21.8" y1="40.8" x2="48.2" y2="40.8"/>
</svg>
