<svg width="48" height="48" viewBox="0 0 48 48" fill="none" xmlns="http://www.w3.org/2000/svg">
<path d="M42.0159 40.0544C42.0159 40.577 41.8083 41.0783 41.4387 41.4479C41.0692 41.8175 40.5679 42.0251 40.0452 42.0251H8.51369C7.99102 42.0251 7.48976 41.8175 7.12018 41.4479C6.7506 41.0783 6.54297 40.577 6.54297 40.0544V19.3401C6.54276 19.0398 6.61119 18.7434 6.74303 18.4736C6.87487 18.2038 7.06663 17.9676 7.30367 17.7832L23.0694 5.52142C23.4154 5.25231 23.8412 5.1062 24.2795 5.1062C24.7177 5.1062 25.1435 5.25231 25.4895 5.52142L41.2552 17.7832C41.4923 17.9676 41.684 18.2038 41.8159 18.4736C41.9477 18.7434 42.0162 19.0398 42.0159 19.3401V40.0544ZM38.0745 38.0836V20.3038L24.2795 9.57322L10.4844 20.3038V38.0836H38.0745Z" fill="white"/>
<path d="M16.3975 26.2593H24.2803M24.2803 26.2593H32.1632M24.2803 26.2593V18.3765M24.2803 26.2593V34.1422" stroke="white" stroke-width="2.95608" stroke-linecap="round" stroke-linejoin="round"/>
</svg>
