<?xml version="1.0" encoding="utf-8"?>
<!-- Generator: Adobe Illustrator 26.3.1, SVG Export Plug-In . SVG Version: 6.00 Build 0)  -->
<svg version="1.1" id="Layer_2" xmlns="http://www.w3.org/2000/svg" xmlns:xlink="http://www.w3.org/1999/xlink" x="0px" y="0px"
	 viewBox="0 0 55.9 51.7" style="enable-background:new 0 0 55.9 51.7;" xml:space="preserve">
<style type="text/css">
	.st0{fill:none;stroke:#3B6665;stroke-width:3.5;stroke-linecap:round;stroke-linejoin:round;}
</style>
<g id="Pet-friendly">
	<g>
		<g>
			<ellipse transform="matrix(0.9848 -0.1736 0.1736 0.9848 -1.4221 3.5752)" class="st0" cx="19.7" cy="9.9" rx="4.9" ry="8.2"/>
			<ellipse transform="matrix(0.866 -0.5 0.5 0.866 -9.5619 6.3524)" class="st0" cx="7.1" cy="21" rx="4.4" ry="7.4"/>
			<ellipse transform="matrix(0.5 -0.866 0.866 0.5 6.2062 52.788)" class="st0" cx="48.8" cy="21" rx="7.4" ry="4.4"/>
			<ellipse transform="matrix(0.1736 -0.9848 0.9848 0.1736 19.9037 43.652)" class="st0" cx="36" cy="10" rx="8.2" ry="4.9"/>
		</g>
		<path class="st0" d="M42.4,44c0,0.7,0,1.3-0.1,1.9c-0.3,3.5-4.5,5.2-7.5,3.1c-2-1.4-4.4-2.2-6.9-2.2s-4.8,0.8-6.9,2.2
			c-3,2.1-7.3,0.4-7.5-3.1c-0.1-0.6-0.1-1.3-0.1-1.9c0-10.3,6.5-18.7,14.5-18.7S42.4,33.7,42.4,44L42.4,44z"/>
	</g>
</g>
</svg>
