<svg width="616" height="259" viewBox="0 0 616 259" fill="none" xmlns="http://www.w3.org/2000/svg">
<path d="M528.747 204.69H42.0469V230.276H528.747V204.69Z" fill="#726599"/>
<path d="M489.669 215.577H52.002V256.051H489.669V215.577Z" fill="#E9E7ED"/>
<path d="M435.333 2.0459L353.459 106.998H498.231L435.333 2.0459Z" fill="#5C5D8A"/>
<path d="M379.88 25.4927L283.117 141.239H450.592L379.88 25.4927Z" fill="#5C5D8A"/>
<path d="M359.658 49.5604L376.719 41.5898L379.508 47.1726L385.184 40.7529L392.66 46.3357L380.81 21.959L359.658 49.5604Z" fill="#A6A7DA"/>
<path d="M435.706 0L410.027 33.8683L429.193 21.9589L434.032 32.5631L439.057 21.7729L457.479 39.451L435.706 0Z" fill="#A6A7DA"/>
<path d="M523.444 93.8804L513.115 103.897V147.067H535.446V107.371L523.444 93.8804Z" fill="#F9EDEA"/>
<path d="M571.454 107.37H535.447V148.867H571.454V107.37Z" fill="#E49683"/>
<path d="M523.445 93.8804L535.448 107.371H571.455L554.149 94.1593L523.445 93.8804Z" fill="#403853"/>
<path d="M103.363 111.465C103.363 111.465 227.853 105.325 345.641 128.771V167.166H101.131L103.363 111.465Z" fill="#7BB8B6"/>
<path d="M104.478 125.978C104.478 125.978 167.001 120.024 194.542 128.954C222.084 137.884 298.748 140.119 331.5 120.768C364.249 101.416 388.815 113.325 388.815 113.325V163.194H103.734L104.478 125.978Z" fill="#2C6769"/>
<path d="M117.131 62.0908L162.287 62.2137C162.287 62.2137 164.645 49.5604 151.62 52.5361C151.62 52.5361 144.301 41.8688 135.244 54.7678C135.244 54.7678 129.166 51.1711 125.072 58.4908C125.072 58.4908 119.366 56.7538 117.131 62.0875V62.0908Z" fill="#A6A7DA"/>
<path d="M229.898 44.9706H263.269C263.269 44.9706 264.883 38.0229 256.819 39.265C256.819 39.265 254.587 29.2154 242.18 35.1701C242.18 35.1701 230.891 31.6963 229.898 44.9706Z" fill="#A6A7DA"/>
<path d="M539.045 71.3929H572.415C572.415 71.3929 574.029 64.4453 565.966 65.6873C565.966 65.6873 563.734 55.6378 551.326 61.5925C551.326 61.5925 540.038 58.1186 539.045 71.3929Z" fill="#A6A7DA"/>
<path d="M277.163 69.4104H323.871C323.871 69.4104 328.523 52.6622 311.031 57.873C311.031 57.873 300.052 45.4057 288.7 61.4099C288.7 61.4099 275.117 56.1992 277.163 69.4104Z" fill="#A6A7DA"/>
<path d="M52.5626 112.86C52.5626 112.86 44.7481 112.581 41.3972 121.791C38.0462 131 34.9776 128.21 34.9776 128.21C34.9776 128.21 23.5331 129.047 27.442 139.934C27.442 139.934 13.3939 137.33 16.9275 151.657V162.544L52.2837 161.707L52.5626 112.86Z" fill="#7BB8B6"/>
<path d="M495.812 23.8188H455.896V149.146H495.812V23.8188Z" fill="#E9E7ED"/>
<path d="M515.155 23.8188H495.531V149.146H515.155V23.8188Z" fill="#DE7E67"/>
<path d="M495.812 33.0317H455.896V34.4266H495.812V33.0317Z" fill="#5C5D8A"/>
<path d="M495.812 41.9619H455.896V43.3568H495.812V41.9619Z" fill="#5C5D8A"/>
<path d="M495.812 50.5205H455.896V51.9154H495.812V50.5205Z" fill="#5C5D8A"/>
<path d="M495.812 59.2681H455.896V60.6629H495.812V59.2681Z" fill="#5C5D8A"/>
<path d="M495.812 68.5708H455.896V69.9656H495.812V68.5708Z" fill="#5C5D8A"/>
<path d="M495.812 78.248H455.896V79.6429H495.812V78.248Z" fill="#5C5D8A"/>
<path d="M495.812 87.3677H455.896V88.7625H495.812V87.3677Z" fill="#5C5D8A"/>
<path d="M495.812 96.856H455.896V98.2508H495.812V96.856Z" fill="#5C5D8A"/>
<path d="M495.812 105.231H455.896V106.626H495.812V105.231Z" fill="#5C5D8A"/>
<path d="M495.812 114.906H455.896V116.301H495.812V114.906Z" fill="#5C5D8A"/>
<path d="M495.812 124.211H455.896V125.606H495.812V124.211Z" fill="#5C5D8A"/>
<path d="M495.812 133.328H455.896V134.723H495.812V133.328Z" fill="#5C5D8A"/>
<path d="M514.789 33.0317H495.902V34.4266H514.789V33.0317Z" fill="#E9E7ED"/>
<path d="M514.789 41.9619H495.902V43.3568H514.789V41.9619Z" fill="#E9E7ED"/>
<path d="M514.789 50.5205H495.902V51.9154H514.789V50.5205Z" fill="#E9E7ED"/>
<path d="M514.789 59.2681H495.902V60.6629H514.789V59.2681Z" fill="#E9E7ED"/>
<path d="M514.789 68.5708H495.902V69.9656H514.789V68.5708Z" fill="#E9E7ED"/>
<path d="M514.789 78.248H495.902V79.6429H514.789V78.248Z" fill="#E9E7ED"/>
<path d="M514.789 87.3677H495.902V88.7625H514.789V87.3677Z" fill="#E9E7ED"/>
<path d="M514.789 96.856H495.902V98.2508H514.789V96.856Z" fill="#E9E7ED"/>
<path d="M514.789 105.231H495.902V106.626H514.789V105.231Z" fill="#E9E7ED"/>
<path d="M514.789 114.906H495.902V116.301H514.789V114.906Z" fill="#E9E7ED"/>
<path d="M514.789 124.211H495.902V125.606H514.789V124.211Z" fill="#E9E7ED"/>
<path d="M514.789 133.328H495.902V134.723H514.789V133.328Z" fill="#E9E7ED"/>
<path d="M463.432 24.0977H462.316V77.9688H463.432V24.0977Z" fill="#5C5D8A"/>
<path d="M487.995 24.0977H486.879V145.516H487.995V24.0977Z" fill="#5C5D8A"/>
<path d="M479.624 24.0977H478.508V145.516H479.624V24.0977Z" fill="#5C5D8A"/>
<path d="M471.805 24.0977H470.689V145.516H471.805V24.0977Z" fill="#5C5D8A"/>
<path d="M515.155 23.8188H495.531V149.146H515.155V23.8188Z" fill="#DE7E67"/>
<path d="M495.812 78.248H455.896V79.6429H495.812V78.248Z" fill="#5C5D8A"/>
<path d="M514.789 33.0317H495.902V34.4266H514.789V33.0317Z" fill="#E9E7ED"/>
<path d="M514.789 41.9619H495.902V43.3568H514.789V41.9619Z" fill="#E9E7ED"/>
<path d="M514.789 50.5205H495.902V51.9154H514.789V50.5205Z" fill="#E9E7ED"/>
<path d="M514.789 59.2681H495.902V60.6629H514.789V59.2681Z" fill="#E9E7ED"/>
<path d="M514.789 68.5708H495.902V69.9656H514.789V68.5708Z" fill="#E9E7ED"/>
<path d="M514.789 78.248H495.902V79.6429H514.789V78.248Z" fill="#E9E7ED"/>
<path d="M514.789 87.3677H495.902V88.7625H514.789V87.3677Z" fill="#E9E7ED"/>
<path d="M514.789 96.856H495.902V98.2508H514.789V96.856Z" fill="#E9E7ED"/>
<path d="M514.789 105.231H495.902V106.626H514.789V105.231Z" fill="#E9E7ED"/>
<path d="M514.789 114.906H495.902V116.301H514.789V114.906Z" fill="#E9E7ED"/>
<path d="M514.789 124.211H495.902V125.606H514.789V124.211Z" fill="#E9E7ED"/>
<path d="M514.789 133.328H495.902V134.723H514.789V133.328Z" fill="#E9E7ED"/>
<path d="M463.432 24.0977H462.316V77.9688H463.432V24.0977Z" fill="#5C5D8A"/>
<path d="M487.995 24.0977H486.879V145.516H487.995V24.0977Z" fill="#5C5D8A"/>
<path d="M479.624 24.0977H478.508V145.516H479.624V24.0977Z" fill="#5C5D8A"/>
<path d="M471.805 24.0977H470.689V145.516H471.805V24.0977Z" fill="#5C5D8A"/>
<path d="M510.885 24.0977H509.77V145.516H510.885V24.0977Z" fill="#E9E7ED"/>
<path d="M503.067 24.0977H501.951V145.516H503.067V24.0977Z" fill="#E9E7ED"/>
<path d="M514.231 101.136C514.231 101.136 496.367 131.282 502.787 145.516C509.206 159.75 521.767 143.284 521.767 143.284C521.767 143.284 528.744 127.931 514.231 101.136Z" fill="#2C6769"/>
<path d="M535.776 121.977C535.776 121.977 525.74 138.914 529.347 146.911C532.953 154.908 540.011 145.656 540.011 145.656C540.011 145.656 543.933 137.031 535.776 121.977Z" fill="#2C6769"/>
<path d="M456.172 65.1294H411.234V110.349H456.172V65.1294Z" fill="#403853"/>
<path d="M397.839 48.6602L378.301 66.8032V116.207H411.236V65.1294L397.839 48.6602Z" fill="#E49683"/>
<path d="M397.838 48.6602L436.638 48.9391L456.455 65.1293H411.235L397.838 48.6602Z" fill="#DE7E67"/>
<path d="M409.16 68.7896H381.246V70.8984H409.16V68.7896Z" fill="#E9E7ED"/>
<path d="M409.16 75.9829H381.246V78.0918H409.16V75.9829Z" fill="#E9E7ED"/>
<path d="M409.16 83.5522H381.246V85.6611H409.16V83.5522Z" fill="#E9E7ED"/>
<path d="M409.16 90.8716H381.246V92.9805H409.16V90.8716Z" fill="#E9E7ED"/>
<path d="M409.16 98.437H381.246V100.546H409.16V98.437Z" fill="#E9E7ED"/>
<path d="M409.16 106.005H381.246V108.114H409.16V106.005Z" fill="#E9E7ED"/>
<path d="M395.822 63.081C397.5 63.081 398.861 61.7205 398.861 60.0422C398.861 58.3639 397.5 57.0034 395.822 57.0034C394.144 57.0034 392.783 58.3639 392.783 60.0422C392.783 61.7205 394.144 63.081 395.822 63.081Z" fill="#E9E7ED"/>
<path d="M378.301 111.465L362.947 122.348V155.287H390.024V123.189L378.301 111.465Z" fill="#E9E7ED"/>
<path d="M378.301 111.465H413.471V123.468L390.024 123.189L378.301 111.465Z" fill="#403853"/>
<path d="M413.47 123.189H390.023V150.824H413.47V123.189Z" fill="#5C5D8A"/>
<path d="M367.849 126.785H365.119V131.873H367.849V126.785Z" fill="#E49683"/>
<path d="M374.548 126.785H371.818V131.873H374.548V126.785Z" fill="#E49683"/>
<path d="M381.246 126.785H378.516V131.873H381.246V126.785Z" fill="#E49683"/>
<path d="M387.945 126.785H385.215V131.873H387.945V126.785Z" fill="#E49683"/>
<path d="M367.849 133.979H365.119V139.066H367.849V133.979Z" fill="#E49683"/>
<path d="M374.548 133.979H371.818V139.066H374.548V133.979Z" fill="#E49683"/>
<path d="M381.246 133.979H378.516V139.066H381.246V133.979Z" fill="#E49683"/>
<path d="M387.945 133.979H385.215V139.066H387.945V133.979Z" fill="#E49683"/>
<path d="M367.849 140.677H365.119V145.765H367.849V140.677Z" fill="#E49683"/>
<path d="M374.548 140.677H371.818V145.765H374.548V140.677Z" fill="#E49683"/>
<path d="M381.246 140.677H378.516V145.765H381.246V140.677Z" fill="#E49683"/>
<path d="M387.945 140.677H385.215V145.765H387.945V140.677Z" fill="#E49683"/>
<path d="M425.1 77.7832L411.234 96.6701H452.266L467.341 77.7832H425.1Z" fill="#DE7E67"/>
<path d="M452.266 96.6704H411.234V144.401H452.266V96.6704Z" fill="#F9EDEA"/>
<path d="M443.396 85.5376L433.35 88.2642L437.813 96.5768L443.396 85.5376Z" fill="#E49683"/>
<path d="M433.35 88.2646L424.543 96.5773H437.814L433.35 88.2646Z" fill="#F9EDEA"/>
<path d="M467.342 77.7832L452.268 96.6701V141.053H467.342V77.7832Z" fill="#403853"/>
<path d="M422.556 102.037H414.492V110.101H422.556V102.037Z" fill="#E49683"/>
<path d="M435.831 102.037H427.768V110.101H435.831V102.037Z" fill="#E49683"/>
<path d="M449.105 102.037H441.041V110.101H449.105V102.037Z" fill="#E49683"/>
<path d="M422.556 114.937H414.492V123H422.556V114.937Z" fill="#E49683"/>
<path d="M435.831 114.937H427.768V123H435.831V114.937Z" fill="#E49683"/>
<path d="M449.105 114.937H441.041V123H449.105V114.937Z" fill="#E49683"/>
<path d="M422.556 128.459H414.492V136.523H422.556V128.459Z" fill="#E49683"/>
<path d="M435.831 128.459H427.768V136.523H435.831V128.459Z" fill="#E49683"/>
<path d="M449.105 128.459H441.041V136.523H449.105V128.459Z" fill="#E49683"/>
<path d="M109.559 80.7017H95.6738V117.768H109.559V80.7017Z" fill="#5C5D8A"/>
<path d="M95.8034 80.7017H86.1191V117.851H95.8034V80.7017Z" fill="#E9E7ED"/>
<path d="M61.213 66.2456H46.1387V155.566H61.213V66.2456Z" fill="#F9EDEA"/>
<path d="M87.1704 66.2456H61.2129V155.566H87.1704V66.2456Z" fill="#E49683"/>
<path d="M50.6074 66.2451V155.007" stroke="#DE7E67" stroke-width="1.32843" stroke-miterlimit="10"/>
<path d="M53.6797 66.2451V155.007" stroke="#DE7E67" stroke-width="1.32843" stroke-miterlimit="10"/>
<path d="M57.0273 66.2451V155.007" stroke="#DE7E67" stroke-width="1.32843" stroke-miterlimit="10"/>
<path d="M63.4473 66.2451V155.007" stroke="#F9EDEA" stroke-width="0.996321" stroke-miterlimit="10"/>
<path d="M67.6348 66.2451V155.007" stroke="#F9EDEA" stroke-width="0.996321" stroke-miterlimit="10"/>
<path d="M72.6602 66.2451V155.007" stroke="#F9EDEA" stroke-width="0.996321" stroke-miterlimit="10"/>
<path d="M77.127 66.2451V155.007" stroke="#F9EDEA" stroke-width="0.996321" stroke-miterlimit="10"/>
<path d="M82.1484 66.2451V155.007" stroke="#F9EDEA" stroke-width="0.996321" stroke-miterlimit="10"/>
<path d="M99.6383 114.192L109.565 120.582V138.26H99.3926L99.6383 114.192Z" fill="#F9EDEA"/>
<path d="M99.6387 114.192H112.292L121.877 120.675L109.565 120.582L99.6387 114.192Z" fill="#E49683"/>
<path d="M121.878 120.625H109.566V138.259H121.878V120.625Z" fill="#5C5D8A"/>
<path d="M104.169 120.519H101.811V126.536H104.169V120.519Z" fill="#E49683"/>
<path d="M107.952 120.519H105.594V126.536H107.952V120.519Z" fill="#E49683"/>
<path d="M104.169 127.467H101.811V133.485H104.169V127.467Z" fill="#E49683"/>
<path d="M107.952 127.467H105.594V133.485H107.952V127.467Z" fill="#E49683"/>
<path d="M113.656 122.504H111.361V124.799H113.656V122.504Z" fill="#F9EDEA"/>
<path d="M113.656 125.735H111.361V132.62H113.656V125.735Z" fill="#F9EDEA"/>
<path d="M117.193 122.504H114.898V124.799H117.193V122.504Z" fill="#F9EDEA"/>
<path d="M117.193 125.735H114.898V132.62H117.193V125.735Z" fill="#F9EDEA"/>
<path d="M120.541 122.504H118.246V124.799H120.541V122.504Z" fill="#F9EDEA"/>
<path d="M120.541 125.735H118.246V132.62H120.541V125.735Z" fill="#F9EDEA"/>
<path d="M80.1634 100.918L73.4648 108.982V146.324H84.7532V107.866L80.1634 100.918Z" fill="#E9E7ED"/>
<path d="M80.1621 100.918H93.1874L99.6369 107.866H84.7518L80.1621 100.918Z" fill="#403853"/>
<path d="M99.637 107.866H84.752V146.198H99.637V107.866Z" fill="#403853"/>
<path d="M77.6829 111.588H74.8301V116.055H77.6829V111.588Z" fill="#5C5D8A"/>
<path d="M82.5188 111.588H79.666V116.055H82.5188V111.588Z" fill="#5C5D8A"/>
<path d="M77.6829 118.536H74.8301V123.002H77.6829V118.536Z" fill="#5C5D8A"/>
<path d="M82.5188 118.536H79.666V123.002H82.5188V118.536Z" fill="#5C5D8A"/>
<path d="M77.6829 125.606H74.8301V130.073H77.6829V125.606Z" fill="#5C5D8A"/>
<path d="M82.5188 125.606H79.666V130.073H82.5188V125.606Z" fill="#5C5D8A"/>
<path d="M77.6829 132.305H74.8301V136.772H77.6829V132.305Z" fill="#5C5D8A"/>
<path d="M82.5188 132.305H79.666V136.772H82.5188V132.305Z" fill="#5C5D8A"/>
<path d="M89.093 132.428H86.2402V136.895H89.093V132.428Z" fill="#E9E7ED"/>
<path d="M93.9329 132.428H91.0801V136.895H93.9329V132.428Z" fill="#E9E7ED"/>
<path d="M98.5227 132.428H95.6699V136.895H98.5227V132.428Z" fill="#E9E7ED"/>
<path d="M89.093 125.855H86.2402V130.322H89.093V125.855Z" fill="#E9E7ED"/>
<path d="M93.9329 125.855H91.0801V130.322H93.9329V125.855Z" fill="#E9E7ED"/>
<path d="M98.5227 125.855H95.6699V130.322H98.5227V125.855Z" fill="#E9E7ED"/>
<path d="M89.093 118.659H86.2402V123.126H89.093V118.659Z" fill="#E9E7ED"/>
<path d="M93.9329 118.659H91.0801V123.126H93.9329V118.659Z" fill="#E9E7ED"/>
<path d="M98.5227 118.659H95.6699V123.126H98.5227V118.659Z" fill="#E9E7ED"/>
<path d="M89.093 111.837H86.2402V116.304H89.093V111.837Z" fill="#E9E7ED"/>
<path d="M93.9329 111.837H91.0801V116.304H93.9329V111.837Z" fill="#E9E7ED"/>
<path d="M98.5227 111.837H95.6699V116.304H98.5227V111.837Z" fill="#E9E7ED"/>
<path d="M35.2567 157.24C35.2567 157.24 108.387 113.697 190.45 142.165C190.45 142.165 242.183 160.959 320.338 147.562V209.34H34.8848L35.2567 157.236V157.24Z" fill="#368082"/>
<path d="M260.975 177.153H259.301V181.992H260.975V177.153Z" fill="#2C6769"/>
<path d="M274.93 172.314H273.256V178.75H274.93V172.314Z" fill="#2C6769"/>
<path d="M260.043 158.169L254.646 177.338H265.626L260.043 158.169Z" fill="#B8D3D2"/>
<path d="M273.813 151.47L267.486 173.243L280.887 173.429L273.813 151.47Z" fill="#B8D3D2"/>
<path d="M297.445 121.511L284.42 133.793V180.872H307.681V132.677L297.445 121.511Z" fill="#E9E7ED"/>
<path d="M297.445 121.511H326.166L339.935 132.926L307.681 132.677L297.445 121.511Z" fill="#5C5D8A"/>
<path d="M340.057 132.676H307.68V170.885H340.057V132.676Z" fill="#403853"/>
<path d="M317.603 137.021H311.648V142.604H317.603V137.021Z" fill="#E9E7ED"/>
<path d="M317.603 143.905H311.648V146.695H317.603V143.905Z" fill="#E9E7ED"/>
<path d="M293.912 137.021H287.957V142.604H293.912V137.021Z" fill="#5C5D8A"/>
<path d="M293.912 143.905H287.957V146.695H293.912V143.905Z" fill="#5C5D8A"/>
<path d="M304.084 137.021H298.129V142.604H304.084V137.021Z" fill="#5C5D8A"/>
<path d="M304.084 143.905H298.129V146.695H304.084V143.905Z" fill="#5C5D8A"/>
<path d="M293.912 149.302H287.957V154.885H293.912V149.302Z" fill="#5C5D8A"/>
<path d="M293.912 156.187H287.957V158.976H293.912V156.187Z" fill="#5C5D8A"/>
<path d="M304.084 149.302H298.129V154.885H304.084V149.302Z" fill="#5C5D8A"/>
<path d="M304.084 156.187H298.129V158.976H304.084V156.187Z" fill="#5C5D8A"/>
<path d="M293.912 161.457H287.957V167.04H293.912V161.457Z" fill="#5C5D8A"/>
<path d="M293.912 168.342H287.957V171.131H293.912V168.342Z" fill="#5C5D8A"/>
<path d="M304.084 161.457H298.129V167.04H304.084V161.457Z" fill="#5C5D8A"/>
<path d="M304.084 168.342H298.129V171.131H304.084V168.342Z" fill="#5C5D8A"/>
<path d="M328.584 137.021H322.629V142.604H328.584V137.021Z" fill="#E9E7ED"/>
<path d="M328.584 143.905H322.629V146.695H328.584V143.905Z" fill="#E9E7ED"/>
<path d="M339.564 140.492L332.742 147.194V167.167H344.897V147.194L339.564 140.492Z" fill="#F9EDEA"/>
<path d="M363.049 146.981H344.896V167.163H363.049V146.981Z" fill="#E49683"/>
<path d="M358.914 139.997L339.562 140.492L344.896 147.194L363.258 147.44L358.914 139.997Z" fill="#DE7E67"/>
<path d="M189.889 189.62C189.889 189.62 280.883 182.922 317.727 168.405C354.571 153.889 422.118 137.702 450.589 138.818C479.061 139.934 545.492 142.169 563.357 150.541V209.158H188.215L189.889 189.62Z" fill="#7BB8B6"/>
<path d="M189.704 154.636H219.477L209.803 166.918H189.518L189.704 154.636Z" fill="#5C5D8A"/>
<path d="M209.799 166.917H189.703V202.646H209.799V166.917Z" fill="#403853"/>
<path d="M219.477 154.636L209.803 166.918V202.832H231.014V166.546L219.477 154.636Z" fill="#DE7E67"/>
<path d="M143.184 116.859V177.525L156.209 189.062V133.793L143.184 116.859Z" fill="#403853"/>
<path d="M114.342 142.913L121.412 132.491H144.859L136.158 143.006L114.342 142.913Z" fill="#E49683"/>
<path d="M136.205 142.913H114.199V171.477H136.205V142.913Z" fill="#F9EDEA"/>
<path d="M144.86 132.491V175.197L136.205 171.477V142.913L144.86 132.491Z" fill="#5C5D8A"/>
<path d="M122.9 146.912H116.945V153.796H122.9V146.912Z" fill="#5C5D8A"/>
<path d="M131.638 146.912H125.684V153.796H131.638V146.912Z" fill="#5C5D8A"/>
<path d="M122.9 157.797H116.945V164.682H122.9V157.797Z" fill="#5C5D8A"/>
<path d="M131.638 157.797H125.684V164.682H131.638V157.797Z" fill="#5C5D8A"/>
<path d="M143.184 116.859H178.912L191.751 133.607L156.209 133.793L143.184 116.859Z" fill="#E49683"/>
<path d="M191.752 133.606H156.117V190.453H191.752V133.606Z" fill="#DE7E67"/>
<path d="M161.049 138.26H187.471" stroke="#E9E7ED" stroke-width="2.65686" stroke-miterlimit="10"/>
<path d="M161.049 144.586H187.471" stroke="#E9E7ED" stroke-width="2.65686" stroke-miterlimit="10"/>
<path d="M161.049 150.913H187.471" stroke="#E9E7ED" stroke-width="2.65686" stroke-miterlimit="10"/>
<path d="M161.049 157.239H187.471" stroke="#E9E7ED" stroke-width="2.65686" stroke-miterlimit="10"/>
<path d="M161.049 163.566H187.471" stroke="#E9E7ED" stroke-width="2.65686" stroke-miterlimit="10"/>
<path d="M161.049 169.893H187.471" stroke="#E9E7ED" stroke-width="2.65686" stroke-miterlimit="10"/>
<path d="M161.049 176.219H187.471" stroke="#E9E7ED" stroke-width="2.65686" stroke-miterlimit="10"/>
<path d="M215.939 167.476H212.963V173.616H215.939V167.476Z" fill="#E9E7ED"/>
<path d="M222.452 167.476H219.477V173.616H222.452V167.476Z" fill="#E9E7ED"/>
<path d="M228.966 167.476H225.99V173.616H228.966V167.476Z" fill="#E9E7ED"/>
<path d="M215.939 175.25H212.963V181.39H215.939V175.25Z" fill="#E9E7ED"/>
<path d="M222.452 175.25H219.477V181.39H222.452V175.25Z" fill="#E9E7ED"/>
<path d="M228.966 175.25H225.99V181.39H228.966V175.25Z" fill="#E9E7ED"/>
<path d="M222.452 183.2H219.477V189.341H222.452V183.2Z" fill="#E9E7ED"/>
<path d="M228.966 183.2H225.99V189.341H228.966V183.2Z" fill="#E9E7ED"/>
<path d="M46.6074 165.243C46.6074 165.243 56.657 152.776 71.542 165.429C71.542 165.429 75.079 171.57 82.1495 171.57C89.2201 171.57 100.572 171.384 105.224 182.549V208.972H47.1654L46.6074 165.243Z" fill="#7BB8B6"/>
<path d="M36.7441 210.087H257.811C257.811 210.087 250.369 195.946 233.249 197.62C233.249 197.62 223.943 198.55 218.364 190.922C212.781 183.293 207.57 168.033 183.193 180.872C183.193 180.872 174.449 189.244 158.073 185.525C158.073 185.525 134.254 153.892 102.249 178.454C102.249 178.454 99.177 187.106 82.7111 189.62C66.2419 192.13 53.5886 181.154 36.7475 210.087H36.7441Z" fill="#2C6769"/>
<path d="M488.552 224.787C488.552 224.787 480.18 226.181 478.782 234.278C478.782 234.278 463.99 230.648 461.755 246.002C461.755 246.002 445.007 237.071 439.424 255.772H487.433L488.549 224.79" fill="#2C6769"/>
<path d="M54.515 234.836C54.515 234.836 63.1664 231.485 65.6804 239.024C65.6804 239.024 72.937 236.793 74.3318 246.839C74.3318 246.839 81.3094 248.792 78.5197 256.051H53.957L54.515 234.836Z" fill="#2C6769"/>
<path d="M5.11149 149.797H49.398L55.7246 171.012H1L5.11149 149.797Z" fill="#5C5D8A"/>
<path d="M14.7867 140.863L6.6003 163.695H1.01758V255.772H28.9312V163.323H21.8573L14.7867 140.863Z" fill="#F9EDEA"/>
<path d="M55.7241 171.012H28.9297V255.799H55.7241V171.012Z" fill="#403853"/>
<path d="M14.8783 162.172C16.729 162.172 18.2293 160.671 18.2293 158.821C18.2293 156.97 16.729 155.47 14.8783 155.47C13.0276 155.47 11.5273 156.97 11.5273 158.821C11.5273 160.671 13.0276 162.172 14.8783 162.172Z" fill="#DE7E67"/>
<path d="M21.8568 175.104H9.01758V181.617H21.8568V175.104Z" fill="#E49683"/>
<path d="M14.6335 183.293H9.01758V195.953H14.6335V183.293Z" fill="#E49683"/>
<path d="M21.7038 183.293H16.0879V195.953H21.7038V183.293Z" fill="#E49683"/>
<path d="M21.8568 200.596H9.01758V207.109H21.8568V200.596Z" fill="#E49683"/>
<path d="M14.6335 208.786H9.01758V221.446H14.6335V208.786Z" fill="#E49683"/>
<path d="M21.7038 208.786H16.0879V221.446H21.7038V208.786Z" fill="#E49683"/>
<path d="M21.8568 227.022H9.01758V233.535H21.8568V227.022Z" fill="#E49683"/>
<path d="M14.6335 235.208H9.01758V247.868H14.6335V235.208Z" fill="#E49683"/>
<path d="M21.7038 235.208H16.0879V247.868H21.7038V235.208Z" fill="#E49683"/>
<path d="M48.4682 175.104H35.6289V181.617H48.4682V175.104Z" fill="#F9EDEA"/>
<path d="M41.2448 183.293H35.6289V195.953H41.2448V183.293Z" fill="#F9EDEA"/>
<path d="M48.3152 183.293H42.6992V195.953H48.3152V183.293Z" fill="#F9EDEA"/>
<path d="M48.4682 200.596H35.6289V207.109H48.4682V200.596Z" fill="#F9EDEA"/>
<path d="M41.2448 208.786H35.6289V221.446H41.2448V208.786Z" fill="#F9EDEA"/>
<path d="M48.3152 208.786H42.6992V221.446H48.3152V208.786Z" fill="#F9EDEA"/>
<path d="M48.4682 227.022H35.6289V233.535H48.4682V227.022Z" fill="#F9EDEA"/>
<path d="M41.2448 235.208H35.6289V247.868H41.2448V235.208Z" fill="#F9EDEA"/>
<path d="M48.3152 235.208H42.6992V247.868H48.3152V235.208Z" fill="#F9EDEA"/>
<path d="M487.438 187.663L496.929 171.755H543.819V188.5" fill="#DE7E67"/>
<path d="M533.494 167.01L513.395 187.664H487.438V256.052H544.939V184.874L533.494 167.01Z" fill="#F9EDEA"/>
<path d="M499.162 191.48H492.277V196.133H499.162V191.48Z" fill="#5C5D8A"/>
<path d="M510.471 191.48H503.586V196.133H510.471V191.48Z" fill="#5C5D8A"/>
<path d="M494.885 204.691H491.348V209.716H494.885V204.691Z" fill="#5C5D8A"/>
<path d="M499.162 204.691H495.625V209.716H499.162V204.691Z" fill="#5C5D8A"/>
<path d="M494.885 210.367H491.348V216.787H494.885V210.367Z" fill="#5C5D8A"/>
<path d="M499.162 210.367H495.625V216.787H499.162V210.367Z" fill="#5C5D8A"/>
<path d="M507.724 204.691H504.188V209.716H507.724V204.691Z" fill="#5C5D8A"/>
<path d="M512.002 204.691H508.465V209.716H512.002V204.691Z" fill="#5C5D8A"/>
<path d="M507.724 210.367H504.188V216.787H507.724V210.367Z" fill="#5C5D8A"/>
<path d="M512.002 210.367H508.465V216.787H512.002V210.367Z" fill="#5C5D8A"/>
<path d="M524.472 204.691H520.936V209.716H524.472V204.691Z" fill="#5C5D8A"/>
<path d="M528.75 204.691H525.213V209.716H528.75V204.691Z" fill="#5C5D8A"/>
<path d="M524.472 210.367H520.936V216.787H524.472V210.367Z" fill="#5C5D8A"/>
<path d="M528.75 210.367H525.213V216.787H528.75V210.367Z" fill="#5C5D8A"/>
<path d="M536.627 204.691H533.09V209.716H536.627V204.691Z" fill="#5C5D8A"/>
<path d="M540.908 204.691H537.371V209.716H540.908V204.691Z" fill="#5C5D8A"/>
<path d="M536.627 210.367H533.09V216.787H536.627V210.367Z" fill="#5C5D8A"/>
<path d="M540.908 210.367H537.371V216.787H540.908V210.367Z" fill="#5C5D8A"/>
<path d="M494.885 222.804H491.348V227.829H494.885V222.804Z" fill="#5C5D8A"/>
<path d="M499.162 222.804H495.625V227.829H499.162V222.804Z" fill="#5C5D8A"/>
<path d="M494.885 228.48H491.348V234.9H494.885V228.48Z" fill="#5C5D8A"/>
<path d="M499.162 228.48H495.625V234.9H499.162V228.48Z" fill="#5C5D8A"/>
<path d="M507.724 222.804H504.188V227.829H507.724V222.804Z" fill="#5C5D8A"/>
<path d="M512.002 222.804H508.465V227.829H512.002V222.804Z" fill="#5C5D8A"/>
<path d="M507.724 228.48H504.188V234.9H507.724V228.48Z" fill="#5C5D8A"/>
<path d="M512.002 228.48H508.465V234.9H512.002V228.48Z" fill="#5C5D8A"/>
<path d="M524.472 222.804H520.936V227.829H524.472V222.804Z" fill="#5C5D8A"/>
<path d="M528.75 222.804H525.213V227.829H528.75V222.804Z" fill="#5C5D8A"/>
<path d="M524.472 228.48H520.936V234.9H524.472V228.48Z" fill="#5C5D8A"/>
<path d="M528.75 228.48H525.213V234.9H528.75V228.48Z" fill="#5C5D8A"/>
<path d="M536.627 222.804H533.09V227.829H536.627V222.804Z" fill="#5C5D8A"/>
<path d="M540.908 222.804H537.371V227.829H540.908V222.804Z" fill="#5C5D8A"/>
<path d="M536.627 228.48H533.09V234.9H536.627V228.48Z" fill="#5C5D8A"/>
<path d="M540.908 228.48H537.371V234.9H540.908V228.48Z" fill="#5C5D8A"/>
<path d="M494.885 240.821H491.348V245.846H494.885V240.821Z" fill="#5C5D8A"/>
<path d="M499.162 240.821H495.625V245.846H499.162V240.821Z" fill="#5C5D8A"/>
<path d="M494.885 246.498H491.348V252.917H494.885V246.498Z" fill="#5C5D8A"/>
<path d="M499.162 246.498H495.625V252.917H499.162V246.498Z" fill="#5C5D8A"/>
<path d="M507.724 240.821H504.188V245.846H507.724V240.821Z" fill="#5C5D8A"/>
<path d="M512.002 240.821H508.465V245.846H512.002V240.821Z" fill="#5C5D8A"/>
<path d="M507.724 246.498H504.188V252.917H507.724V246.498Z" fill="#5C5D8A"/>
<path d="M512.002 246.498H508.465V252.917H512.002V246.498Z" fill="#5C5D8A"/>
<path d="M524.472 240.821H520.936V245.846H524.472V240.821Z" fill="#5C5D8A"/>
<path d="M528.75 240.821H525.213V245.846H528.75V240.821Z" fill="#5C5D8A"/>
<path d="M524.472 246.498H520.936V252.917H524.472V246.498Z" fill="#5C5D8A"/>
<path d="M528.75 246.498H525.213V252.917H528.75V246.498Z" fill="#5C5D8A"/>
<path d="M536.627 240.821H533.09V245.846H536.627V240.821Z" fill="#5C5D8A"/>
<path d="M540.908 240.821H537.371V245.846H540.908V240.821Z" fill="#5C5D8A"/>
<path d="M536.627 246.498H533.09V252.917H536.627V246.498Z" fill="#5C5D8A"/>
<path d="M540.908 246.498H537.371V252.917H540.908V246.498Z" fill="#5C5D8A"/>
<path d="M532.937 187.388C534.941 187.388 536.566 185.763 536.566 183.758C536.566 181.754 534.941 180.128 532.937 180.128C530.932 180.128 529.307 181.754 529.307 183.758C529.307 185.763 530.932 187.388 532.937 187.388Z" fill="#DE7E67"/>
<path d="M542.145 145.931L542.516 256.33H615.832V147.057H603.551V132.036H586.806V120.396H569.314V132.036H558.893V145.931H542.145Z" fill="#403853"/>
<path d="M557.527 154.068H547.604V159.199H557.527V154.068Z" fill="#F9EDEA"/>
<path d="M557.527 160.574H547.604V165.705H557.527V160.574Z" fill="#F9EDEA"/>
<path d="M557.527 167.585H547.604V173.848H557.527V167.585Z" fill="#F9EDEA"/>
<path d="M575.019 154.068H565.096V159.199H575.019V154.068Z" fill="#F9EDEA"/>
<path d="M575.019 160.574H565.096V165.705H575.019V160.574Z" fill="#F9EDEA"/>
<path d="M575.019 167.585H565.096V173.848H575.019V167.585Z" fill="#F9EDEA"/>
<path d="M593.255 154.068H583.332V159.199H593.255V154.068Z" fill="#F9EDEA"/>
<path d="M593.255 160.574H583.332V165.705H593.255V160.574Z" fill="#F9EDEA"/>
<path d="M593.255 167.585H583.332V173.848H593.255V167.585Z" fill="#F9EDEA"/>
<path d="M611.304 154.068H601.381V159.199H611.304V154.068Z" fill="#F9EDEA"/>
<path d="M611.304 160.574H601.381V165.705H611.304V160.574Z" fill="#F9EDEA"/>
<path d="M611.304 167.585H601.381V173.848H611.304V167.585Z" fill="#F9EDEA"/>
<path d="M557.527 185.545H547.604V190.676H557.527V185.545Z" fill="#F9EDEA"/>
<path d="M557.527 192.054H547.604V197.185H557.527V192.054Z" fill="#F9EDEA"/>
<path d="M557.527 199.065H547.604V205.329H557.527V199.065Z" fill="#F9EDEA"/>
<path d="M575.019 185.545H565.096V190.676H575.019V185.545Z" fill="#F9EDEA"/>
<path d="M575.019 192.054H565.096V197.185H575.019V192.054Z" fill="#F9EDEA"/>
<path d="M575.019 199.065H565.096V205.329H575.019V199.065Z" fill="#F9EDEA"/>
<path d="M593.255 185.545H583.332V190.676H593.255V185.545Z" fill="#F9EDEA"/>
<path d="M593.255 192.054H583.332V197.185H593.255V192.054Z" fill="#F9EDEA"/>
<path d="M593.255 199.065H583.332V205.329H593.255V199.065Z" fill="#F9EDEA"/>
<path d="M611.304 185.545H601.381V190.676H611.304V185.545Z" fill="#F9EDEA"/>
<path d="M611.304 192.054H601.381V197.185H611.304V192.054Z" fill="#F9EDEA"/>
<path d="M611.304 199.065H601.381V205.329H611.304V199.065Z" fill="#F9EDEA"/>
<path d="M557.527 216.338H547.604V221.469H557.527V216.338Z" fill="#F9EDEA"/>
<path d="M557.527 222.847H547.604V227.978H557.527V222.847Z" fill="#F9EDEA"/>
<path d="M557.527 229.855H547.604V236.119H557.527V229.855Z" fill="#F9EDEA"/>
<path d="M575.019 216.338H565.096V221.469H575.019V216.338Z" fill="#F9EDEA"/>
<path d="M575.019 222.847H565.096V227.978H575.019V222.847Z" fill="#F9EDEA"/>
<path d="M575.019 229.855H565.096V236.119H575.019V229.855Z" fill="#F9EDEA"/>
<path d="M593.255 216.338H583.332V221.469H593.255V216.338Z" fill="#F9EDEA"/>
<path d="M593.255 222.847H583.332V227.978H593.255V222.847Z" fill="#F9EDEA"/>
<path d="M593.255 229.855H583.332V236.119H593.255V229.855Z" fill="#F9EDEA"/>
<path d="M611.304 216.338H601.381V221.469H611.304V216.338Z" fill="#F9EDEA"/>
<path d="M611.304 222.847H601.381V227.978H611.304V222.847Z" fill="#F9EDEA"/>
<path d="M611.304 229.855H601.381V236.119H611.304V229.855Z" fill="#F9EDEA"/>
<path d="M613.973 254.932H2.79297V256.977H613.973V254.932Z" stroke="#403853" stroke-width="3.65318" stroke-miterlimit="10" stroke-linecap="square"/>
</svg>
