<svg width="295" height="124" viewBox="0 0 295 124" fill="none" xmlns="http://www.w3.org/2000/svg">
<g clip-path="url(#clip0_60_9162)">
<path d="M252.872 98.0703H19.6846V110.329H252.872V98.0703Z" fill="#726599"/>
<path d="M234.148 103.287H24.4531V122.678H234.148V103.287Z" fill="#E9E7ED"/>
<path d="M208.117 0.979736L168.89 51.2646H238.253L208.117 0.979736Z" fill="#5C5D8A"/>
<path d="M181.548 12.2126L135.188 67.6689H215.428L181.548 12.2126Z" fill="#5C5D8A"/>
<path d="M171.858 23.7447L180.032 19.9258L181.369 22.6006L184.088 19.5248L187.67 22.1996L181.993 10.5203L171.858 23.7447Z" fill="#E9E7ED"/>
<path d="M208.292 -0.0012207L195.989 16.2258L205.172 10.5197L207.49 15.6004L209.898 10.4306L218.724 18.9005L208.292 -0.0012207Z" fill="#E9E7ED"/>
<path d="M250.331 44.9795L245.383 49.7785V70.4624H256.082V51.4429L250.331 44.9795Z" fill="#F9EDEA"/>
<path d="M273.334 51.4429H256.082V71.3248H273.334V51.4429Z" fill="#E49683"/>
<path d="M250.331 44.9795L256.082 51.4429H273.333L265.042 45.1132L250.331 44.9795Z" fill="#403853"/>
<path d="M49.0615 53.4038C49.0615 53.4038 108.707 50.4617 165.142 61.6955V80.0913H47.9922L49.0615 53.4038Z" fill="#B8D3D2"/>
<path d="M49.5967 60.3575C49.5967 60.3575 79.5524 57.5045 92.7482 61.7832C105.944 66.0619 142.675 67.1328 158.367 57.8609C174.058 48.5891 185.828 54.2951 185.828 54.2951V78.1884H49.2402L49.5967 60.3575Z" fill="#2C6769"/>
<path d="M55.6582 29.7479L77.2936 29.8068C77.2936 29.8068 78.4234 23.7443 72.1827 25.1701C72.1827 25.1701 68.6757 20.0592 64.3366 26.2393C64.3366 26.2393 61.4247 24.5161 59.4627 28.0231C59.4627 28.0231 56.7291 27.1909 55.6582 29.7463V29.7479Z" fill="#E9E7ED"/>
<path d="M109.688 21.545H125.676C125.676 21.545 126.449 18.2162 122.586 18.8113C122.586 18.8113 121.516 13.9964 115.572 16.8494C115.572 16.8494 110.163 15.185 109.688 21.545Z" fill="#E9E7ED"/>
<path d="M257.806 34.2051H273.794C273.794 34.2051 274.567 30.8764 270.704 31.4715C270.704 31.4715 269.635 26.6565 263.69 29.5095C263.69 29.5095 258.281 27.8451 257.806 34.2051Z" fill="#E9E7ED"/>
<path d="M132.333 33.2544H154.711C154.711 33.2544 156.941 25.2301 148.56 27.7266C148.56 27.7266 143.299 21.7533 137.861 29.4213C137.861 29.4213 131.353 26.9247 132.333 33.2544Z" fill="#E9E7ED"/>
<path d="M24.7236 54.0722C24.7236 54.0722 20.9795 53.9386 19.374 58.3509C17.7685 62.7633 16.2982 61.4267 16.2982 61.4267C16.2982 61.4267 10.815 61.8277 12.6878 67.0436C12.6878 67.0436 5.95707 65.7961 7.6501 72.6605V77.8765L24.5899 77.4755L24.7236 54.0722Z" fill="#B8D3D2"/>
<path d="M237.091 11.4104H217.967V71.4572H237.091V11.4104Z" fill="#E9E7ED"/>
<path d="M246.359 11.4104H236.957V71.4572H246.359V11.4104Z" fill="#DE7E67"/>
<path d="M237.091 15.8245H217.967V16.4928H237.091V15.8245Z" fill="#5C5D8A"/>
<path d="M237.091 20.1025H217.967V20.7708H237.091V20.1025Z" fill="#5C5D8A"/>
<path d="M237.091 24.2036H217.967V24.8719H237.091V24.2036Z" fill="#5C5D8A"/>
<path d="M237.091 28.3955H217.967V29.0638H237.091V28.3955Z" fill="#5C5D8A"/>
<path d="M237.091 32.8516H217.967V33.5199H237.091V32.8516Z" fill="#5C5D8A"/>
<path d="M237.091 37.4888H217.967V38.1571H237.091V37.4888Z" fill="#5C5D8A"/>
<path d="M237.091 41.8579H217.967V42.5262H237.091V41.8579Z" fill="#5C5D8A"/>
<path d="M237.091 46.4033H217.967V47.0716H237.091V46.4033Z" fill="#5C5D8A"/>
<path d="M237.091 50.417H217.967V51.0853H237.091V50.417Z" fill="#5C5D8A"/>
<path d="M237.091 55.0522H217.967V55.7205H237.091V55.0522Z" fill="#5C5D8A"/>
<path d="M237.091 59.5112H217.967V60.1795H237.091V59.5112Z" fill="#5C5D8A"/>
<path d="M237.091 63.8779H217.967V64.5462H237.091V63.8779Z" fill="#5C5D8A"/>
<path d="M246.186 15.8242H237.137V16.4925H246.186V15.8242Z" fill="#E9E7ED"/>
<path d="M246.186 20.1033H237.137V20.7716H246.186V20.1033Z" fill="#E9E7ED"/>
<path d="M246.186 24.2031H237.137V24.8714H246.186V24.2031Z" fill="#E9E7ED"/>
<path d="M246.186 28.395H237.137V29.0633H246.186V28.395Z" fill="#E9E7ED"/>
<path d="M246.186 32.8511H237.137V33.5194H246.186V32.8511Z" fill="#E9E7ED"/>
<path d="M246.186 37.4883H237.137V38.1566H246.186V37.4883Z" fill="#E9E7ED"/>
<path d="M246.186 41.8574H237.137V42.5257H246.186V41.8574Z" fill="#E9E7ED"/>
<path d="M246.186 46.4043H237.137V47.0726H246.186V46.4043Z" fill="#E9E7ED"/>
<path d="M246.186 50.4165H237.137V51.0848H246.186V50.4165Z" fill="#E9E7ED"/>
<path d="M246.186 55.0518H237.137V55.7201H246.186V55.0518Z" fill="#E9E7ED"/>
<path d="M246.186 59.5107H237.137V60.179H246.186V59.5107Z" fill="#E9E7ED"/>
<path d="M246.186 63.8779H237.137V64.5462H246.186V63.8779Z" fill="#E9E7ED"/>
<path d="M221.579 11.5444H221.044V37.3552H221.579V11.5444Z" fill="#5C5D8A"/>
<path d="M233.348 11.5442H232.813V69.7182H233.348V11.5442Z" fill="#5C5D8A"/>
<path d="M229.335 11.5442H228.801V69.7182H229.335V11.5442Z" fill="#5C5D8A"/>
<path d="M225.589 11.5442H225.055V69.7182H225.589V11.5442Z" fill="#5C5D8A"/>
<path d="M244.316 11.5442H243.781V69.7182H244.316V11.5442Z" fill="#E9E7ED"/>
<path d="M240.569 11.5449H240.034V69.7189H240.569V11.5449Z" fill="#E9E7ED"/>
<path d="M245.918 48.4551C245.918 48.4551 237.359 62.8983 240.435 69.7182C243.51 76.538 249.528 68.6489 249.528 68.6489C249.528 68.6489 252.871 61.2928 245.918 48.4551Z" fill="#2C6769"/>
<path d="M256.24 58.4409C256.24 58.4409 251.432 66.556 253.16 70.3876C254.888 74.2192 258.269 69.7861 258.269 69.7861C258.269 69.7861 260.148 65.6538 256.24 58.4409Z" fill="#2C6769"/>
<path d="M218.099 31.2041H196.568V52.8698H218.099V31.2041Z" fill="#403853"/>
<path d="M190.149 23.313L180.788 32.0057V55.6762H196.568V31.2037L190.149 23.313Z" fill="#E49683"/>
<path d="M190.149 23.313L208.739 23.4466L218.234 31.2037H196.568L190.149 23.313Z" fill="#DE7E67"/>
<path d="M195.575 32.9565H182.201V33.9669H195.575V32.9565Z" fill="#E9E7ED"/>
<path d="M195.575 36.4023H182.201V37.4128H195.575V36.4023Z" fill="#E9E7ED"/>
<path d="M195.575 40.0293H182.201V41.0397H195.575V40.0293Z" fill="#E9E7ED"/>
<path d="M195.575 43.5366H182.201V44.547H195.575V43.5366Z" fill="#E9E7ED"/>
<path d="M195.575 47.1602H182.201V48.1706H195.575V47.1602Z" fill="#E9E7ED"/>
<path d="M195.575 50.7871H182.201V51.7975H195.575V50.7871Z" fill="#E9E7ED"/>
<path d="M189.185 30.221C189.99 30.221 190.641 29.5691 190.641 28.765C190.641 27.9609 189.99 27.3091 189.185 27.3091C188.381 27.3091 187.729 27.9609 187.729 28.765C187.729 29.5691 188.381 30.221 189.185 30.221Z" fill="#E9E7ED"/>
<path d="M180.79 53.4048L173.434 58.6191V74.4006H186.407V59.0217L180.79 53.4048Z" fill="#E9E7ED"/>
<path d="M180.791 53.4048H197.642V59.1553L186.408 59.0217L180.791 53.4048Z" fill="#403853"/>
<path d="M197.641 59.0215H186.407V72.2618H197.641V59.0215Z" fill="#5C5D8A"/>
<path d="M175.781 60.7441H174.473V63.1818H175.781V60.7441Z" fill="#E49683"/>
<path d="M178.991 60.7441H177.683V63.1818H178.991V60.7441Z" fill="#E49683"/>
<path d="M182.2 60.7441H180.892V63.1818H182.2V60.7441Z" fill="#E49683"/>
<path d="M185.41 60.7441H184.102V63.1818H185.41V60.7441Z" fill="#E49683"/>
<path d="M175.781 64.1909H174.473V66.6286H175.781V64.1909Z" fill="#E49683"/>
<path d="M178.991 64.1909H177.683V66.6286H178.991V64.1909Z" fill="#E49683"/>
<path d="M182.2 64.1909H180.892V66.6286H182.2V64.1909Z" fill="#E49683"/>
<path d="M185.41 64.1909H184.102V66.6286H185.41V64.1909Z" fill="#E49683"/>
<path d="M175.781 67.4004H174.473V69.8381H175.781V67.4004Z" fill="#E49683"/>
<path d="M178.991 67.4004H177.683V69.8381H178.991V67.4004Z" fill="#E49683"/>
<path d="M182.2 67.4004H180.892V69.8381H182.2V67.4004Z" fill="#E49683"/>
<path d="M185.41 67.4004H184.102V69.8381H185.41V67.4004Z" fill="#E49683"/>
<path d="M203.214 37.2661L196.57 46.3152H216.229L223.452 37.2661H203.214Z" fill="#DE7E67"/>
<path d="M216.229 46.3149H196.57V69.1836H216.229V46.3149Z" fill="#F9EDEA"/>
<path d="M211.979 40.981L207.166 42.2873L209.305 46.2701L211.979 40.981Z" fill="#E49683"/>
<path d="M207.165 42.2881L202.945 46.2708H209.304L207.165 42.2881Z" fill="#F9EDEA"/>
<path d="M223.453 37.2661L216.23 46.3152V67.5799H223.453V37.2661Z" fill="#403853"/>
<path d="M201.994 48.8862H198.131V52.7496H201.994V48.8862Z" fill="#E49683"/>
<path d="M208.356 48.8862H204.492V52.7496H208.356V48.8862Z" fill="#E49683"/>
<path d="M214.714 48.8862H210.851V52.7496H214.714V48.8862Z" fill="#E49683"/>
<path d="M201.994 55.0669H198.131V58.9303H201.994V55.0669Z" fill="#E49683"/>
<path d="M208.356 55.0669H204.492V58.9303H208.356V55.0669Z" fill="#E49683"/>
<path d="M214.714 55.0669H210.851V58.9303H214.714V55.0669Z" fill="#E49683"/>
<path d="M201.994 61.5454H198.131V65.4088H201.994V61.5454Z" fill="#E49683"/>
<path d="M208.356 61.5454H204.492V65.4088H208.356V61.5454Z" fill="#E49683"/>
<path d="M214.714 61.5454H210.851V65.4088H214.714V61.5454Z" fill="#E49683"/>
<path d="M52.0307 38.665H45.3779V56.4243H52.0307V38.665Z" fill="#5C5D8A"/>
<path d="M45.4407 38.665H40.8008V56.4641H45.4407V38.665Z" fill="#E9E7ED"/>
<path d="M28.8679 31.7378H21.6455V74.5329H28.8679V31.7378Z" fill="#F9EDEA"/>
<path d="M41.3049 31.7378H28.8682V74.5329H41.3049V31.7378Z" fill="#E49683"/>
<path d="M23.7832 31.7378V74.2656" stroke="#DE7E67" stroke-width="0.636477" stroke-miterlimit="10"/>
<path d="M25.2559 31.7378V74.2656" stroke="#DE7E67" stroke-width="0.636477" stroke-miterlimit="10"/>
<path d="M26.8594 31.7378V74.2656" stroke="#DE7E67" stroke-width="0.636477" stroke-miterlimit="10"/>
<path d="M29.9336 31.7378V74.2656" stroke="#F9EDEA" stroke-width="0.477358" stroke-miterlimit="10"/>
<path d="M31.9404 31.7378V74.2656" stroke="#F9EDEA" stroke-width="0.477358" stroke-miterlimit="10"/>
<path d="M34.3486 31.7378V74.2656" stroke="#F9EDEA" stroke-width="0.477358" stroke-miterlimit="10"/>
<path d="M36.4893 31.7378V74.2656" stroke="#F9EDEA" stroke-width="0.477358" stroke-miterlimit="10"/>
<path d="M38.8955 31.7378V74.2656" stroke="#F9EDEA" stroke-width="0.477358" stroke-miterlimit="10"/>
<path d="M47.2769 54.7109L52.033 57.7724V66.2423H47.1592L47.2769 54.7109Z" fill="#F9EDEA"/>
<path d="M47.2764 54.7109H53.3388L57.931 57.8169L52.0324 57.7724L47.2764 54.7109Z" fill="#E49683"/>
<path d="M57.9318 57.7925H52.0332V66.2417H57.9318V57.7925Z" fill="#5C5D8A"/>
<path d="M49.4481 57.7422H48.3184V60.6254H49.4481V57.7422Z" fill="#E49683"/>
<path d="M51.2606 57.7422H50.1309V60.6254H51.2606V57.7422Z" fill="#E49683"/>
<path d="M49.4481 61.0713H48.3184V63.9545H49.4481V61.0713Z" fill="#E49683"/>
<path d="M51.2606 61.0713H50.1309V63.9545H51.2606V61.0713Z" fill="#E49683"/>
<path d="M53.9921 58.6934H52.8926V59.7929H53.9921V58.6934Z" fill="#F9EDEA"/>
<path d="M53.9921 60.2417H52.8926V63.5402H53.9921V60.2417Z" fill="#F9EDEA"/>
<path d="M55.6874 58.6934H54.5879V59.7929H55.6874V58.6934Z" fill="#F9EDEA"/>
<path d="M55.6874 60.2417H54.5879V63.5402H55.6874V60.2417Z" fill="#F9EDEA"/>
<path d="M57.2909 58.6934H56.1914V59.7929H57.2909V58.6934Z" fill="#F9EDEA"/>
<path d="M57.2909 60.2417H56.1914V63.5402H57.2909V60.2417Z" fill="#F9EDEA"/>
<path d="M37.9477 48.3501L34.7383 52.2135V70.1049H40.1467V51.6789L37.9477 48.3501Z" fill="#E9E7ED"/>
<path d="M37.9463 48.3501H44.1869L47.277 51.6789H40.1453L37.9463 48.3501Z" fill="#403853"/>
<path d="M47.2782 51.6792H40.1465V70.0447H47.2782V51.6792Z" fill="#403853"/>
<path d="M36.7604 53.4614H35.3936V55.6016H36.7604V53.4614Z" fill="#5C5D8A"/>
<path d="M39.0778 53.4614H37.7109V55.6016H39.0778V53.4614Z" fill="#5C5D8A"/>
<path d="M36.7604 56.7905H35.3936V58.9307H36.7604V56.7905Z" fill="#5C5D8A"/>
<path d="M39.0778 56.7905H37.7109V58.9307H39.0778V56.7905Z" fill="#5C5D8A"/>
<path d="M36.7604 60.1792H35.3936V62.3194H36.7604V60.1792Z" fill="#5C5D8A"/>
<path d="M39.0778 60.1792H37.7109V62.3194H39.0778V60.1792Z" fill="#5C5D8A"/>
<path d="M36.7604 63.3877H35.3936V65.5278H36.7604V63.3877Z" fill="#5C5D8A"/>
<path d="M39.0778 63.3877H37.7109V65.5278H39.0778V63.3877Z" fill="#5C5D8A"/>
<path d="M42.2272 63.4463H40.8604V65.5864H42.2272V63.4463Z" fill="#E9E7ED"/>
<path d="M44.5446 63.4463H43.1777V65.5864H44.5446V63.4463Z" fill="#E9E7ED"/>
<path d="M46.7448 63.4463H45.3779V65.5864H46.7448V63.4463Z" fill="#E9E7ED"/>
<path d="M42.2272 60.2979H40.8604V62.438H42.2272V60.2979Z" fill="#E9E7ED"/>
<path d="M44.5446 60.2979H43.1777V62.438H44.5446V60.2979Z" fill="#E9E7ED"/>
<path d="M46.7448 60.2979H45.3779V62.438H46.7448V60.2979Z" fill="#E9E7ED"/>
<path d="M42.2272 56.8491H40.8604V58.9893H42.2272V56.8491Z" fill="#E9E7ED"/>
<path d="M44.5446 56.8491H43.1777V58.9893H44.5446V56.8491Z" fill="#E9E7ED"/>
<path d="M46.7448 56.8491H45.3779V58.9893H46.7448V56.8491Z" fill="#E9E7ED"/>
<path d="M42.2272 53.582H40.8604V55.7222H42.2272V53.582Z" fill="#E9E7ED"/>
<path d="M44.5446 53.582H43.1777V55.7222H44.5446V53.582Z" fill="#E9E7ED"/>
<path d="M46.7448 53.582H45.3779V55.7222H46.7448V53.582Z" fill="#E9E7ED"/>
<path d="M16.4311 75.3353C16.4311 75.3353 51.4692 54.4732 90.7875 68.1129C90.7875 68.1129 115.574 77.1175 153.019 70.6986V100.298H16.2529L16.4311 75.3337V75.3353Z" fill="#368082"/>
<path d="M124.576 84.876H123.774V87.1943H124.576V84.876Z" fill="#2C6769"/>
<path d="M131.261 82.5581H130.459V85.6418H131.261V82.5581Z" fill="#2C6769"/>
<path d="M124.129 75.7808L121.543 84.9651H126.803L124.129 75.7808Z" fill="#B8D3D2"/>
<path d="M130.728 72.5713L127.696 83.0031L134.117 83.0923L130.728 72.5713Z" fill="#B8D3D2"/>
<path d="M142.05 58.2173L135.81 64.1015V86.6582H146.954V63.5669L142.05 58.2173Z" fill="#E9E7ED"/>
<path d="M142.051 58.2173H155.811L162.408 63.6862L146.955 63.5669L142.051 58.2173Z" fill="#5C5D8A"/>
<path d="M162.467 63.5669H146.954V81.8736H162.467V63.5669Z" fill="#403853"/>
<path d="M151.708 65.6475H148.855V68.3223H151.708V65.6475Z" fill="#E9E7ED"/>
<path d="M151.708 68.9468H148.855V70.2834H151.708V68.9468Z" fill="#E9E7ED"/>
<path d="M140.355 65.6484H137.502V68.3232H140.355V65.6484Z" fill="#5C5D8A"/>
<path d="M140.355 68.9468H137.502V70.2834H140.355V68.9468Z" fill="#5C5D8A"/>
<path d="M145.23 65.6484H142.377V68.3232H145.23V65.6484Z" fill="#5C5D8A"/>
<path d="M145.23 68.9468H142.377V70.2834H145.23V68.9468Z" fill="#5C5D8A"/>
<path d="M140.355 71.5322H137.502V74.207H140.355V71.5322Z" fill="#5C5D8A"/>
<path d="M140.355 74.8315H137.502V76.1681H140.355V74.8315Z" fill="#5C5D8A"/>
<path d="M145.23 71.5322H142.377V74.207H145.23V71.5322Z" fill="#5C5D8A"/>
<path d="M145.23 74.8315H142.377V76.1681H145.23V74.8315Z" fill="#5C5D8A"/>
<path d="M140.355 77.3574H137.502V80.0322H140.355V77.3574Z" fill="#5C5D8A"/>
<path d="M140.355 80.6553H137.502V81.9919H140.355V80.6553Z" fill="#5C5D8A"/>
<path d="M145.23 77.3574H142.377V80.0322H145.23V77.3574Z" fill="#5C5D8A"/>
<path d="M145.23 80.6553H142.377V81.9919H145.23V80.6553Z" fill="#5C5D8A"/>
<path d="M156.968 65.6475H154.115V68.3223H156.968V65.6475Z" fill="#E9E7ED"/>
<path d="M156.968 68.9468H154.115V70.2834H156.968V68.9468Z" fill="#E9E7ED"/>
<path d="M162.231 67.3105L158.963 70.5216V80.091H164.787V70.5216L162.231 67.3105Z" fill="#F9EDEA"/>
<path d="M173.483 70.4199H164.785V80.0896H173.483V70.4199Z" fill="#E49683"/>
<path d="M171.502 67.0742L162.23 67.3113L164.786 70.5223L173.584 70.6401L171.502 67.0742Z" fill="#DE7E67"/>
<path d="M90.5178 90.8491C90.5178 90.8491 134.115 87.6396 151.768 80.6845C169.42 73.7294 201.783 65.974 215.425 66.5086C229.066 67.0432 260.895 68.1141 269.454 72.1255V100.21H89.7158L90.5178 90.8491Z" fill="#B8D3D2"/>
<path d="M90.429 74.0879H104.694L100.059 79.9721H90.3398L90.429 74.0879Z" fill="#5C5D8A"/>
<path d="M100.057 79.9727H90.4287V97.0907H100.057V79.9727Z" fill="#403853"/>
<path d="M104.696 74.0879L100.061 79.9721V97.1793H110.223V79.7939L104.696 74.0879Z" fill="#DE7E67"/>
<path d="M68.1416 55.9883V85.0546L74.3823 90.5824V64.1018L68.1416 55.9883Z" fill="#403853"/>
<path d="M54.3232 68.4712L57.7109 63.478H68.9447L64.7758 68.5157L54.3232 68.4712Z" fill="#E49683"/>
<path d="M64.7981 68.4697H54.2549V82.1556H64.7981V68.4697Z" fill="#F9EDEA"/>
<path d="M68.9445 63.478V83.9392L64.7979 82.157V68.4712L68.9445 63.478Z" fill="#5C5D8A"/>
<path d="M58.4233 70.3862H55.5703V73.6848H58.4233V70.3862Z" fill="#5C5D8A"/>
<path d="M62.6118 70.3862H59.7588V73.6848H62.6118V70.3862Z" fill="#5C5D8A"/>
<path d="M58.4233 75.6011H55.5703V78.8996H58.4233V75.6011Z" fill="#5C5D8A"/>
<path d="M62.6118 75.6011H59.7588V78.8996H62.6118V75.6011Z" fill="#5C5D8A"/>
<path d="M68.1416 55.9883H85.2596L91.4112 64.0127L74.3823 64.1018L68.1416 55.9883Z" fill="#E49683"/>
<path d="M91.4114 64.0122H74.3379V91.2486H91.4114V64.0122Z" fill="#DE7E67"/>
<path d="M76.7002 66.2422H89.3597" stroke="#E9E7ED" stroke-width="1.27295" stroke-miterlimit="10"/>
<path d="M76.7002 69.2734H89.3597" stroke="#E9E7ED" stroke-width="1.27295" stroke-miterlimit="10"/>
<path d="M76.7002 72.3042H89.3597" stroke="#E9E7ED" stroke-width="1.27295" stroke-miterlimit="10"/>
<path d="M76.7002 75.3354H89.3597" stroke="#E9E7ED" stroke-width="1.27295" stroke-miterlimit="10"/>
<path d="M76.7002 78.3662H89.3597" stroke="#E9E7ED" stroke-width="1.27295" stroke-miterlimit="10"/>
<path d="M76.7002 81.3984H89.3597" stroke="#E9E7ED" stroke-width="1.27295" stroke-miterlimit="10"/>
<path d="M76.7002 84.4292H89.3597" stroke="#E9E7ED" stroke-width="1.27295" stroke-miterlimit="10"/>
<path d="M102.999 80.2397H101.573V83.1819H102.999V80.2397Z" fill="#E9E7ED"/>
<path d="M106.119 80.2397H104.693V83.1819H106.119V80.2397Z" fill="#E9E7ED"/>
<path d="M109.238 80.2397H107.812V83.1819H109.238V80.2397Z" fill="#E9E7ED"/>
<path d="M102.999 83.9644H101.573V86.9065H102.999V83.9644Z" fill="#E9E7ED"/>
<path d="M106.119 83.9644H104.693V86.9065H106.119V83.9644Z" fill="#E9E7ED"/>
<path d="M109.238 83.9644H107.812V86.9065H109.238V83.9644Z" fill="#E9E7ED"/>
<path d="M106.119 87.7729H104.693V90.7151H106.119V87.7729Z" fill="#E9E7ED"/>
<path d="M109.238 87.7729H107.812V90.7151H109.238V87.7729Z" fill="#E9E7ED"/>
<path d="M21.8701 79.1691C21.8701 79.1691 26.6851 73.1958 33.8168 79.2582C33.8168 79.2582 35.5114 82.2004 38.8991 82.2004C42.2867 82.2004 47.7254 82.1112 49.9546 87.4608V100.12H22.1374L21.8701 79.1691Z" fill="#B8D3D2"/>
<path d="M17.1436 100.656H123.061C123.061 100.656 119.495 93.8804 111.293 94.6823C111.293 94.6823 106.834 95.1279 104.161 91.4729C101.486 87.8179 98.9897 80.5064 87.3104 86.6579C87.3104 86.6579 83.1207 90.6693 75.2746 88.8872C75.2746 88.8872 63.8625 73.7311 48.5282 85.4996C48.5282 85.4996 47.0564 89.6446 39.1672 90.8491C31.2765 92.0521 25.2141 86.7932 17.1451 100.656H17.1436Z" fill="#2C6769"/>
<path d="M233.615 107.698C233.615 107.698 229.603 108.367 228.933 112.246C228.933 112.246 221.846 110.507 220.775 117.863C220.775 117.863 212.751 113.584 210.076 122.544H233.078L233.613 107.7" fill="#2C6769"/>
<path d="M25.657 112.514C25.657 112.514 29.802 110.908 31.0066 114.52C31.0066 114.52 34.4833 113.451 35.1516 118.264C35.1516 118.264 38.4947 119.2 37.1581 122.678H25.3896L25.657 112.514Z" fill="#2C6769"/>
<path d="M1.98747 71.769H23.206L26.2372 81.9336H0.0175781L1.98747 71.769Z" fill="#5C5D8A"/>
<path d="M6.62247 67.4888L2.70018 78.4282H0.0253906V122.544H13.3994V78.25H10.0101L6.62247 67.4888Z" fill="#F9EDEA"/>
<path d="M26.2372 81.9346H13.3994V122.558H26.2372V81.9346Z" fill="#403853"/>
<path d="M6.66704 77.6978C7.55374 77.6978 8.27255 76.979 8.27255 76.0923C8.27255 75.2056 7.55374 74.4868 6.66704 74.4868C5.78034 74.4868 5.06152 75.2056 5.06152 76.0923C5.06152 76.979 5.78034 77.6978 6.66704 77.6978Z" fill="#DE7E67"/>
<path d="M10.0109 83.8945H3.85938V87.0149H10.0109V83.8945Z" fill="#E49683"/>
<path d="M6.55008 87.8184H3.85938V93.884H6.55008V87.8184Z" fill="#E49683"/>
<path d="M9.93778 87.8184H7.24707V93.884H9.93778V87.8184Z" fill="#E49683"/>
<path d="M10.0109 96.1084H3.85938V99.2287H10.0109V96.1084Z" fill="#E49683"/>
<path d="M6.55008 100.032H3.85938V106.098H6.55008V100.032Z" fill="#E49683"/>
<path d="M9.93778 100.032H7.24707V106.098H9.93778V100.032Z" fill="#E49683"/>
<path d="M10.0109 108.771H3.85938V111.891H10.0109V108.771Z" fill="#E49683"/>
<path d="M6.55008 112.691H3.85938V118.757H6.55008V112.691Z" fill="#E49683"/>
<path d="M9.93778 112.691H7.24707V118.757H9.93778V112.691Z" fill="#E49683"/>
<path d="M22.7619 83.8945H16.6104V87.0149H22.7619V83.8945Z" fill="#F9EDEA"/>
<path d="M19.3011 87.8184H16.6104V93.884H19.3011V87.8184Z" fill="#F9EDEA"/>
<path d="M22.6888 87.8184H19.998V93.884H22.6888V87.8184Z" fill="#F9EDEA"/>
<path d="M22.7619 96.1084H16.6104V99.2287H22.7619V96.1084Z" fill="#F9EDEA"/>
<path d="M19.3011 100.032H16.6104V106.098H19.3011V100.032Z" fill="#F9EDEA"/>
<path d="M22.6888 100.032H19.998V106.098H22.6888V100.032Z" fill="#F9EDEA"/>
<path d="M22.7619 108.77H16.6104V111.89H22.7619V108.77Z" fill="#F9EDEA"/>
<path d="M19.3011 112.691H16.6104V118.757H19.3011V112.691Z" fill="#F9EDEA"/>
<path d="M22.6888 112.691H19.998V118.757H22.6888V112.691Z" fill="#F9EDEA"/>
<path d="M233.079 89.9123L237.627 82.2905H260.093V90.3133" fill="#DE7E67"/>
<path d="M255.146 80.0171L245.516 89.9127H233.079V122.679H260.629V88.5761L255.146 80.0171Z" fill="#F9EDEA"/>
<path d="M238.697 91.7412H235.398V93.9705H238.697V91.7412Z" fill="#5C5D8A"/>
<path d="M244.116 91.7412H240.817V93.9705H244.116V91.7412Z" fill="#5C5D8A"/>
<path d="M236.648 98.0713H234.953V100.479H236.648V98.0713Z" fill="#5C5D8A"/>
<path d="M238.698 98.0713H237.003V100.479H238.698V98.0713Z" fill="#5C5D8A"/>
<path d="M236.648 100.791H234.953V103.867H236.648V100.791Z" fill="#5C5D8A"/>
<path d="M238.698 100.791H237.003V103.867H238.698V100.791Z" fill="#5C5D8A"/>
<path d="M242.8 98.0713H241.105V100.479H242.8V98.0713Z" fill="#5C5D8A"/>
<path d="M244.85 98.0713H243.155V100.479H244.85V98.0713Z" fill="#5C5D8A"/>
<path d="M242.8 100.791H241.105V103.867H242.8V100.791Z" fill="#5C5D8A"/>
<path d="M244.85 100.791H243.155V103.867H244.85V100.791Z" fill="#5C5D8A"/>
<path d="M250.824 98.0713H249.129V100.479H250.824V98.0713Z" fill="#5C5D8A"/>
<path d="M252.873 98.0713H251.179V100.479H252.873V98.0713Z" fill="#5C5D8A"/>
<path d="M250.824 100.791H249.129V103.867H250.824V100.791Z" fill="#5C5D8A"/>
<path d="M252.873 100.791H251.179V103.867H252.873V100.791Z" fill="#5C5D8A"/>
<path d="M256.649 98.0713H254.954V100.479H256.649V98.0713Z" fill="#5C5D8A"/>
<path d="M258.7 98.0713H257.006V100.479H258.7V98.0713Z" fill="#5C5D8A"/>
<path d="M256.649 100.791H254.954V103.867H256.649V100.791Z" fill="#5C5D8A"/>
<path d="M258.7 100.791H257.006V103.867H258.7V100.791Z" fill="#5C5D8A"/>
<path d="M236.648 106.75H234.953V109.157H236.648V106.75Z" fill="#5C5D8A"/>
<path d="M238.698 106.75H237.003V109.157H238.698V106.75Z" fill="#5C5D8A"/>
<path d="M236.648 109.469H234.953V112.545H236.648V109.469Z" fill="#5C5D8A"/>
<path d="M238.698 109.469H237.003V112.545H238.698V109.469Z" fill="#5C5D8A"/>
<path d="M242.8 106.75H241.105V109.157H242.8V106.75Z" fill="#5C5D8A"/>
<path d="M244.85 106.75H243.155V109.157H244.85V106.75Z" fill="#5C5D8A"/>
<path d="M242.8 109.469H241.105V112.545H242.8V109.469Z" fill="#5C5D8A"/>
<path d="M244.85 109.469H243.155V112.545H244.85V109.469Z" fill="#5C5D8A"/>
<path d="M250.824 106.75H249.129V109.157H250.824V106.75Z" fill="#5C5D8A"/>
<path d="M252.873 106.75H251.179V109.157H252.873V106.75Z" fill="#5C5D8A"/>
<path d="M250.824 109.469H249.129V112.545H250.824V109.469Z" fill="#5C5D8A"/>
<path d="M252.873 109.469H251.179V112.545H252.873V109.469Z" fill="#5C5D8A"/>
<path d="M256.649 106.75H254.954V109.157H256.649V106.75Z" fill="#5C5D8A"/>
<path d="M258.7 106.75H257.006V109.157H258.7V106.75Z" fill="#5C5D8A"/>
<path d="M256.649 109.469H254.954V112.545H256.649V109.469Z" fill="#5C5D8A"/>
<path d="M258.7 109.469H257.006V112.545H258.7V109.469Z" fill="#5C5D8A"/>
<path d="M236.648 115.382H234.953V117.79H236.648V115.382Z" fill="#5C5D8A"/>
<path d="M238.698 115.382H237.003V117.79H238.698V115.382Z" fill="#5C5D8A"/>
<path d="M236.648 118.101H234.953V121.177H236.648V118.101Z" fill="#5C5D8A"/>
<path d="M238.698 118.101H237.003V121.177H238.698V118.101Z" fill="#5C5D8A"/>
<path d="M242.8 115.382H241.105V117.79H242.8V115.382Z" fill="#5C5D8A"/>
<path d="M244.85 115.382H243.155V117.79H244.85V115.382Z" fill="#5C5D8A"/>
<path d="M242.8 118.101H241.105V121.177H242.8V118.101Z" fill="#5C5D8A"/>
<path d="M244.85 118.101H243.155V121.177H244.85V118.101Z" fill="#5C5D8A"/>
<path d="M250.824 115.382H249.129V117.79H250.824V115.382Z" fill="#5C5D8A"/>
<path d="M252.873 115.382H251.179V117.79H252.873V115.382Z" fill="#5C5D8A"/>
<path d="M250.824 118.101H249.129V121.177H250.824V118.101Z" fill="#5C5D8A"/>
<path d="M252.873 118.101H251.179V121.177H252.873V118.101Z" fill="#5C5D8A"/>
<path d="M256.649 115.382H254.954V117.79H256.649V115.382Z" fill="#5C5D8A"/>
<path d="M258.7 115.382H257.006V117.79H258.7V115.382Z" fill="#5C5D8A"/>
<path d="M256.649 118.101H254.954V121.177H256.649V118.101Z" fill="#5C5D8A"/>
<path d="M258.7 118.101H257.006V121.177H258.7V118.101Z" fill="#5C5D8A"/>
<path d="M254.879 89.7801C255.839 89.7801 256.618 89.0014 256.618 88.0409C256.618 87.0804 255.839 86.3018 254.879 86.3018C253.918 86.3018 253.14 87.0804 253.14 88.0409C253.14 89.0014 253.918 89.7801 254.879 89.7801Z" fill="#DE7E67"/>
<path d="M259.292 69.9168L259.47 122.811H294.597V70.4562H288.713V63.2593H280.69V57.6821H272.31V63.2593H267.316V69.9168H259.292Z" fill="#403853"/>
<path d="M266.666 73.8159H261.911V76.2743H266.666V73.8159Z" fill="#F9EDEA"/>
<path d="M266.666 76.9326H261.911V79.391H266.666V76.9326Z" fill="#F9EDEA"/>
<path d="M266.666 80.2925H261.911V83.2935H266.666V80.2925Z" fill="#F9EDEA"/>
<path d="M275.045 73.8159H270.291V76.2743H275.045V73.8159Z" fill="#F9EDEA"/>
<path d="M275.045 76.9326H270.291V79.391H275.045V76.9326Z" fill="#F9EDEA"/>
<path d="M275.045 80.2925H270.291V83.2935H275.045V80.2925Z" fill="#F9EDEA"/>
<path d="M283.784 73.8159H279.029V76.2743H283.784V73.8159Z" fill="#F9EDEA"/>
<path d="M283.784 76.9326H279.029V79.391H283.784V76.9326Z" fill="#F9EDEA"/>
<path d="M283.784 80.2925H279.029V83.2935H283.784V80.2925Z" fill="#F9EDEA"/>
<path d="M292.431 73.8159H287.677V76.2743H292.431V73.8159Z" fill="#F9EDEA"/>
<path d="M292.431 76.9326H287.677V79.391H292.431V76.9326Z" fill="#F9EDEA"/>
<path d="M292.431 80.2925H287.677V83.2935H292.431V80.2925Z" fill="#F9EDEA"/>
<path d="M266.666 88.897H261.911V91.3554H266.666V88.897Z" fill="#F9EDEA"/>
<path d="M266.666 92.0166H261.911V94.475H266.666V92.0166Z" fill="#F9EDEA"/>
<path d="M266.666 95.3755H261.911V98.3765H266.666V95.3755Z" fill="#F9EDEA"/>
<path d="M275.045 88.897H270.291V91.3554H275.045V88.897Z" fill="#F9EDEA"/>
<path d="M275.045 92.0166H270.291V94.475H275.045V92.0166Z" fill="#F9EDEA"/>
<path d="M275.045 95.3755H270.291V98.3765H275.045V95.3755Z" fill="#F9EDEA"/>
<path d="M283.784 88.897H279.029V91.3554H283.784V88.897Z" fill="#F9EDEA"/>
<path d="M283.784 92.0166H279.029V94.475H283.784V92.0166Z" fill="#F9EDEA"/>
<path d="M283.784 95.3755H279.029V98.3765H283.784V95.3755Z" fill="#F9EDEA"/>
<path d="M292.431 88.897H287.677V91.3554H292.431V88.897Z" fill="#F9EDEA"/>
<path d="M292.431 92.0166H287.677V94.475H292.431V92.0166Z" fill="#F9EDEA"/>
<path d="M292.431 95.3755H287.677V98.3765H292.431V95.3755Z" fill="#F9EDEA"/>
<path d="M266.666 103.651H261.911V106.109H266.666V103.651Z" fill="#F9EDEA"/>
<path d="M266.666 106.771H261.911V109.229H266.666V106.771Z" fill="#F9EDEA"/>
<path d="M266.666 110.127H261.911V113.128H266.666V110.127Z" fill="#F9EDEA"/>
<path d="M275.045 103.651H270.291V106.109H275.045V103.651Z" fill="#F9EDEA"/>
<path d="M275.045 106.771H270.291V109.229H275.045V106.771Z" fill="#F9EDEA"/>
<path d="M275.045 110.127H270.291V113.128H275.045V110.127Z" fill="#F9EDEA"/>
<path d="M283.784 103.651H279.029V106.109H283.784V103.651Z" fill="#F9EDEA"/>
<path d="M283.784 106.771H279.029V109.229H283.784V106.771Z" fill="#F9EDEA"/>
<path d="M283.784 110.127H279.029V113.128H283.784V110.127Z" fill="#F9EDEA"/>
<path d="M292.431 103.651H287.677V106.109H292.431V103.651Z" fill="#F9EDEA"/>
<path d="M292.431 106.771H287.677V109.229H292.431V106.771Z" fill="#F9EDEA"/>
<path d="M292.431 110.127H287.677V113.128H292.431V110.127Z" fill="#F9EDEA"/>
<path d="M293.706 122.142H0.876953V123.122H293.706V122.142Z" stroke="#403853" stroke-width="1.75031" stroke-miterlimit="10" stroke-linecap="square"/>
</g>
<defs>
<clipPath id="clip0_60_9162">
<rect width="294.595" height="124" fill="white"/>
</clipPath>
</defs>
</svg>
