<?xml version="1.0" encoding="utf-8"?>
<!-- Generator: Adobe Illustrator 26.3.1, SVG Export Plug-In . SVG Version: 6.00 Build 0)  -->
<svg version="1.1" id="Layer_2" xmlns="http://www.w3.org/2000/svg" xmlns:xlink="http://www.w3.org/1999/xlink" x="0px" y="0px"
	 viewBox="0 0 53.2 53" style="enable-background:new 0 0 53.2 53;" xml:space="preserve">
<style type="text/css">
	.st0{fill:none;stroke:#3B6665;stroke-width:3.5;stroke-linecap:round;stroke-linejoin:round;}
</style>
<g id="tool-tips">
	<g>
		<path class="st0" d="M33.9,41.5c4.4-2.5,7.3-7.3,7.3-12.7c0-8.1-6.5-14.6-14.6-14.6S12,20.8,12,28.8c0,5.4,2.9,10.2,7.3,12.7"/>
		<path class="st0" d="M19.6,41.7h14.2v2.7c0,3.8-3.1,6.8-6.9,6.8h-0.5c-3.8,0-6.9-3.1-6.9-6.8L19.6,41.7
			C19.6,41.7,19.6,41.7,19.6,41.7z"/>
		<g>
			<g>
				<line class="st0" x1="26.6" y1="7.4" x2="26.6" y2="1.7"/>
				<line class="st0" x1="38" y1="10.8" x2="41.7" y2="6.5"/>
				<line class="st0" x1="44.8" y1="19.6" x2="49.7" y2="16.8"/>
				<line class="st0" x1="46.1" y1="29.2" x2="51.5" y2="30.6"/>
			</g>
			<g>
				<line class="st0" x1="15.2" y1="10.8" x2="11.6" y2="6.5"/>
				<line class="st0" x1="8.4" y1="19.6" x2="3.5" y2="16.8"/>
				<line class="st0" x1="7.2" y1="29.2" x2="1.8" y2="30.6"/>
			</g>
		</g>
	</g>
</g>
</svg>
